<svg width="24" height="24" viewBox="0 0 24 24" fill="none" xmlns="http://www.w3.org/2000/svg">
<g clip-path="url(#clip0_0_131)">
<path d="M23.8558 12.3319C23.5962 11.8704 22.9904 11.6973 22.5 11.9858L19.2116 13.8896L18.3751 14.38V18.9376L19.1539 19.3991C19.1827 19.3991 19.1827 19.428 19.2116 19.428L22.4423 21.3029C22.5866 21.4183 22.7885 21.476 22.9904 21.476C23.5385 21.476 23.9711 21.0433 23.9711 20.4953V16.6299L24 12.8223C24 12.6492 23.9711 12.4761 23.8558 12.3319Z" fill="#929292"/>
<path d="M4.64447 10.8606C7.21174 10.8606 9.28864 8.78372 9.28864 6.21644C9.28864 3.64916 7.21174 1.57227 4.64447 1.57227C2.07719 1.57227 0.000292874 3.64916 0.000292874 6.21644C-0.0285529 8.78372 2.07719 10.8606 4.64447 10.8606ZM4.64447 4.31262C5.71176 4.31262 6.54829 5.17799 6.54829 6.21644C6.54829 7.28374 5.68292 8.12026 4.64447 8.12026C3.60602 8.12026 2.74064 7.25489 2.74064 6.21644C2.7118 5.14915 3.57717 4.31262 4.64447 4.31262Z" fill="#929292"/>
<path d="M16.4135 11.12C15.6636 11.495 14.827 11.7258 13.9328 11.7258C12.8367 11.7258 11.7982 11.4085 10.9328 10.8315H7.64442C6.77904 11.4085 5.74059 11.7258 4.64445 11.7258C3.75023 11.7258 2.9137 11.5238 2.16371 11.12C1.50026 11.495 1.03873 12.245 1.03873 13.0527V20.091C1.03873 21.3891 2.10602 22.4276 3.37524 22.4276H15.2309C16.5289 22.4276 17.5674 21.3603 17.5674 20.091V13.0527C17.5385 12.245 17.077 11.495 16.4135 11.12Z" fill="#929292"/>
<path d="M13.9328 10.8606C16.5001 10.8606 18.577 8.78372 18.577 6.21644C18.577 3.64916 16.5001 1.57227 13.9328 1.57227C11.3655 1.57227 9.28864 3.64916 9.28864 6.21644C9.28864 8.78372 11.3655 10.8606 13.9328 10.8606ZM13.9328 4.31262C15.0001 4.31262 15.8366 5.17799 15.8366 6.21644C15.8366 7.28374 14.9713 8.12026 13.9328 8.12026C12.8944 8.12026 12.029 7.25489 12.029 6.21644C12.029 5.14915 12.8655 4.31262 13.9328 4.31262Z" fill="#929292"/>
</g>
<defs>
<clipPath id="clip0_0_131">
<rect width="24" height="24" fill="white"/>
</clipPath>
</defs>
</svg>
