<svg width="24" height="24" viewBox="0 0 24 24" fill="none" xmlns="http://www.w3.org/2000/svg">
<path d="M19.8571 7.35714V4.14286H16.6428C15.2274 4.14286 15.2249 2 16.6428 2H20.2429C20.7087 2.00052 21.1553 2.18581 21.4848 2.51522C21.8142 2.84463 21.9995 3.29126 22 3.75711V7.35714C22 8.77286 19.8571 8.77464 19.8571 7.35714Z" fill="#0064D2"/>
<path d="M2 7.35714V3.75711C2.00052 3.29126 2.18581 2.84463 2.51522 2.51522C2.84463 2.18581 3.29126 2.00052 3.75711 2H7.35714C8.77257 2 8.77509 4.14286 7.35714 4.14286H4.14286V7.35714C4.14286 8.77286 2 8.77464 2 7.35714Z" fill="#0064D2"/>
<path d="M20.2429 22.0001H16.6428C15.2274 22.0001 15.2249 19.8573 16.6428 19.8573H19.8571V16.643C19.8571 15.2273 22 15.2255 22 16.643V20.243C21.9995 20.7089 21.8142 21.1555 21.4848 21.4849C21.1553 21.8143 20.7087 21.9996 20.2429 22.0001Z" fill="#0064D2"/>
<path d="M7.35714 22.0001H3.75711C3.29126 21.9996 2.84463 21.8143 2.51522 21.4849C2.18581 21.1555 2.00052 20.7089 2 20.243V16.643C2 15.2273 4.14286 15.2255 4.14286 16.643V19.8573H7.35714C8.77257 19.8573 8.77509 22.0001 7.35714 22.0001Z" fill="#0064D2"/>
<path d="M20.9286 13.0716H3.07143C1.656 13.0716 1.65348 10.9287 3.07143 10.9287H20.9286C22.344 10.9287 22.3465 13.0716 20.9286 13.0716Z" fill="#0064D2"/>
</svg>
