<svg width="16" height="16" viewBox="0 0 16 16" fill="none" xmlns="http://www.w3.org/2000/svg">
<g clip-path="url(#clip0_0_46)">
<path d="M8.00002 0.666504C6.54963 0.666504 5.1318 1.0966 3.92584 1.90239C2.71988 2.70819 1.77995 3.8535 1.22491 5.19349C0.669864 6.53348 0.52464 8.00797 0.807598 9.4305C1.09056 10.853 1.78899 12.1597 2.81457 13.1853C3.84016 14.2109 5.14683 14.9093 6.56936 15.1923C7.99189 15.4752 9.46638 15.33 10.8064 14.775C12.1464 14.2199 13.2917 13.28 14.0975 12.074C14.9033 10.8681 15.3334 9.45023 15.3334 7.99984C15.3311 6.05562 14.5577 4.19169 13.1829 2.81692C11.8082 1.44215 9.94424 0.668798 8.00002 0.666504ZM10.4714 10.4712C10.3463 10.5962 10.1768 10.6664 10 10.6664C9.82325 10.6664 9.65371 10.5962 9.52869 10.4712L7.52869 8.47117C7.40366 8.34617 7.3334 8.17663 7.33336 7.99984V3.99984C7.33336 3.82303 7.40359 3.65346 7.52862 3.52843C7.65364 3.40341 7.82321 3.33317 8.00002 3.33317C8.17683 3.33317 8.3464 3.40341 8.47143 3.52843C8.59645 3.65346 8.66669 3.82303 8.66669 3.99984V7.72384L10.4714 9.5285C10.5963 9.65352 10.6665 9.82306 10.6665 9.99984C10.6665 10.1766 10.5963 10.3462 10.4714 10.4712Z" fill="#929292"/>
</g>
<defs>
<clipPath id="clip0_0_46">
<rect width="16" height="16" fill="white"/>
</clipPath>
</defs>
</svg>
