<svg width="32" height="32" viewBox="0 0 32 32" fill="none" xmlns="http://www.w3.org/2000/svg">
<path d="M20.1485 3.84692C20.2492 5.1616 19.8334 6.46374 18.9895 7.47681C18.5854 7.97942 18.0725 8.38378 17.4895 8.65944C16.9065 8.93511 16.2685 9.07488 15.6236 9.06824C15.5825 8.43603 15.6663 7.80191 15.8704 7.20213C16.0745 6.60235 16.3948 6.04867 16.8129 5.57274C17.6682 4.59854 18.8592 3.98234 20.1485 3.84692Z" fill="#0D1634"/>
<path d="M22.5003 13.4154C22.0719 14.1704 21.8413 15.0214 21.8301 15.8894C21.8312 16.8657 22.1196 17.8201 22.6594 18.6336C23.1993 19.4471 23.9666 20.0837 24.8658 20.4641C24.5123 21.6125 23.9794 22.6979 23.2868 23.6799C22.3568 25.0712 21.3816 26.4305 19.8338 26.4556C19.0977 26.4726 18.6008 26.2609 18.0831 26.0403C17.543 25.8103 16.9802 25.5705 16.0996 25.5705C15.1656 25.5705 14.5776 25.818 14.0105 26.0566C13.5205 26.2629 13.046 26.4626 12.3774 26.4903C10.9034 26.5449 9.77686 25.0054 8.81298 23.6271C6.88647 20.8125 5.38636 15.6951 7.39747 12.2131C7.86175 11.3788 8.53423 10.679 9.34938 10.1819C10.1645 9.68477 11.0946 9.40727 12.0488 9.37643C12.8848 9.35924 13.687 9.68145 14.3903 9.96395C14.9282 10.18 15.4082 10.3728 15.8013 10.3728C16.1469 10.3728 16.6135 10.1876 17.1573 9.97177C18.014 9.63177 19.0622 9.21576 20.1303 9.32788C20.9489 9.3535 21.7503 9.56963 22.4708 9.95913C23.1912 10.3486 23.8109 10.9007 24.2807 11.5716C23.5412 12.0263 22.9288 12.6605 22.5003 13.4154Z" fill="#0D1634"/>
</svg>
