<svg width="343" height="377" viewBox="0 0 343 377" fill="none" xmlns="http://www.w3.org/2000/svg">
<path d="M262.372 67.8016V330.717C262.372 338.148 256.806 344.16 249.942 344.16H127.239C120.359 344.16 114.793 338.148 114.793 330.717V67.8016C114.793 52.6624 120.359 51.9241 127.239 51.9241H151.822C153.25 51.9241 154.418 53.5467 154.418 55.5588V56.4269C154.418 61.1407 156.998 61.1569 160.162 61.1569H217.003C220.2 61.1569 222.763 61.1569 222.763 56.4269V55.5588C222.763 53.5467 223.915 51.9241 225.368 51.9241H249.942C256.806 51.9241 262.372 53.9362 262.372 67.8016Z" fill="white"/>
<rect x="153.737" y="150.094" width="95.7353" height="7.30185" rx="3.65092" fill="#CFDAD8"/>
<rect x="127.774" y="199.584" width="120.886" height="7.30185" rx="3.65092" fill="#CFDAD8"/>
<rect x="154.548" y="248.263" width="94.1127" height="7.30185" rx="3.65092" fill="#CFDAD8"/>
<rect x="153.737" y="161.452" width="95.7353" height="7.30185" rx="3.65092" fill="#CFDAD8"/>
<rect x="127.774" y="210.942" width="120.886" height="7.30185" rx="3.65092" fill="#CFDAD8"/>
<rect x="154.548" y="259.621" width="94.1127" height="7.30185" rx="3.65092" fill="#CFDAD8"/>
<rect x="152.925" y="172.81" width="95.7353" height="7.30185" rx="3.65092" fill="#CFDAD8"/>
<rect x="126.963" y="222.301" width="120.886" height="7.30185" rx="3.65092" fill="#CFDAD8"/>
<rect x="153.737" y="270.98" width="94.1127" height="7.30185" rx="3.65092" fill="#CFDAD8"/>
<rect x="166.718" y="300.187" width="81.943" height="20.2829" rx="7" fill="#0064D2"/>
<path d="M33.8321 239.248L23.1795 239.476L17.7761 239.565C15.975 239.605 14.1576 239.565 12.3484 239.613H11.9833V239.248L11.9428 230.17V229.764H12.3484L23.0902 229.813C26.6681 229.813 30.2461 229.91 33.8321 229.951H34.0511V230.17C34.0511 231.711 33.9781 233.245 33.9457 234.754L33.8321 239.248ZM33.8321 239.248L33.7185 234.664C33.7185 233.147 33.6211 231.654 33.6049 230.17L33.8321 230.389C30.2461 230.389 26.6681 230.519 23.0902 230.527L12.3484 230.575L12.7541 230.17L12.7054 239.248L12.3484 238.883C14.1171 238.883 15.8776 238.883 17.6544 238.932L22.9929 239.021L33.8321 239.248Z" fill="#EBEBEB"/>
<path d="M21.8488 250.697L11.1962 250.924L5.7928 251.014C3.98357 251.054 2.17433 251.014 0.365093 251.062H0V250.697V241.618V241.213H0.397546L11.1394 241.261C14.7173 241.261 18.2952 241.359 21.8812 241.399H22.1003V241.618C22.1003 243.16 22.0272 244.693 21.9948 246.202L21.8488 250.697ZM21.8488 250.697L21.7271 246.113C21.7271 244.596 21.6378 243.103 21.6216 241.618L21.8488 241.838C18.2627 241.878 14.6848 241.967 11.1069 241.975L0.397546 242.024L0.795093 241.618L0.722074 250.697L0.365093 250.332C2.13376 250.332 3.89432 250.332 5.6711 250.381L11.0096 250.47L21.8488 250.697Z" fill="#EBEBEB"/>
<path d="M45.8311 250.697L35.1785 250.924L29.7752 251.014C27.9741 251.054 26.1567 251.014 24.3475 251.062H23.9905V250.697V241.618V241.213H24.3962L35.138 241.261C38.7159 241.261 42.3019 241.359 45.8798 241.399H46.0989V241.618C46.0989 243.16 46.034 244.693 45.9934 246.202L45.8311 250.697ZM45.8311 250.697L45.7175 246.113C45.7175 244.596 45.6202 243.103 45.6121 241.618L45.8311 241.838C42.2532 241.878 38.6672 241.967 35.0893 241.975L24.3475 242.024L24.7531 241.618L24.6882 250.697L24.3312 250.332C26.0999 250.332 27.8686 250.332 29.6373 250.381L34.9757 250.47L45.8311 250.697Z" fill="#EBEBEB"/>
<path d="M330.822 250.697L320.178 250.924L314.774 251.014C312.965 251.054 311.148 251.014 309.339 251.062H308.982V250.697L308.933 241.618V241.213H309.339L320.08 241.261C323.666 241.261 327.244 241.359 330.822 241.399H331.049V241.618C331.049 243.16 330.976 244.693 330.944 246.202L330.822 250.697ZM330.822 250.697L330.709 246.113C330.709 244.596 330.619 243.103 330.603 241.618L330.822 241.838C327.244 241.878 323.666 241.967 320.08 241.975L309.339 242.024L309.744 241.618L309.704 250.697L309.339 250.332C311.107 250.332 312.876 250.332 314.653 250.381L319.991 250.47L330.822 250.697Z" fill="#EBEBEB"/>
<path d="M330.822 46.8691L320.178 47.0557L314.774 47.1531C312.965 47.1531 311.148 47.1531 309.339 47.1936H308.982V46.8367L308.933 37.758V37.3443H309.339L320.08 37.3929C323.666 37.3929 327.244 37.4822 330.822 37.5228H331.049V37.7418C331.049 39.2752 330.976 40.8086 330.944 42.3257L330.822 46.8691ZM330.822 46.8691L330.709 42.2771C330.709 40.768 330.619 39.2752 330.603 37.7905L330.822 38.0095C327.244 38.0095 323.666 38.1394 320.08 38.1394L309.339 38.188L309.744 37.7905L309.704 46.8691L309.339 46.504C311.107 46.504 312.876 46.504 314.653 46.504L319.991 46.6014L330.822 46.8691Z" fill="#EBEBEB"/>
<path d="M342.773 58.3182L332.128 58.5372L326.725 58.6346C324.916 58.6346 323.107 58.6346 321.289 58.6346H320.932V58.2776L320.884 49.199V48.7852H321.289L332.031 48.8339C335.617 48.8339 339.195 48.9231 342.773 48.9637H343V49.1827C343 50.7161 342.927 52.2495 342.895 53.7667L342.773 58.3182ZM342.773 58.3182L342.659 53.7261C342.659 52.2171 342.57 50.7242 342.554 49.2395L342.773 49.491C339.195 49.491 335.617 49.6208 332.031 49.6208L321.289 49.6695L321.695 49.272L321.679 58.3182L321.313 57.9531C323.09 57.9531 324.851 57.9531 326.628 57.9531L331.966 58.0504L342.773 58.3182Z" fill="#EBEBEB"/>
<path d="M21.8488 46.8772L11.1962 47.1044L5.7928 47.1936C3.98357 47.1936 2.17433 47.1936 0.365093 47.1936H0V46.8286V37.7499V37.3443H0.397546L11.1394 37.3929C14.7173 37.3929 18.2952 37.4822 21.8812 37.5228H22.1003V37.7418C22.1003 39.2833 22.0272 40.8086 21.9948 42.3257L21.8488 46.8772ZM21.8488 46.8772L21.7271 42.2852C21.7271 40.7761 21.6378 39.2833 21.6216 37.7986L21.8488 38.0177C18.2627 38.0177 14.6848 38.1475 11.1069 38.1475L0.397546 38.2043L0.795093 37.7986L0.722074 46.8772L0.397546 46.5121C2.16622 46.5121 3.92677 46.5121 5.70356 46.5608L11.042 46.6501L21.8488 46.8772Z" fill="#EBEBEB"/>
<path d="M71.3717 117.819L82.0243 117.592L87.4277 117.502C89.2369 117.502 91.0461 117.502 92.8554 117.462H93.2205V117.827L93.261 126.905V127.311H92.8878L82.146 127.262C78.5681 127.262 74.9902 127.173 71.4042 127.133H71.1851V126.914C71.1851 125.372 71.2581 123.847 71.2906 122.33L71.3717 117.819ZM71.3717 117.819L71.4934 122.411C71.4934 123.92 71.5826 125.413 71.5989 126.897L71.3717 126.678C74.9577 126.678 78.5356 126.548 82.1135 126.548L92.8554 126.492L92.4497 126.897L92.4984 117.819L92.8554 118.184C91.0867 118.184 89.3261 118.184 87.5494 118.135L82.2109 118.046L71.3717 117.819Z" fill="#EBEBEB"/>
<path d="M270.915 156.195L281.559 155.976L286.963 155.879C288.772 155.879 290.589 155.879 292.399 155.879H292.755V156.244L292.804 165.323V165.736H292.399L281.657 165.688C278.071 165.688 274.493 165.599 270.915 165.558H270.688V165.339C270.688 163.806 270.761 162.272 270.793 160.755L270.915 156.195ZM270.915 156.195L271.028 160.787C271.028 162.297 271.118 163.789 271.134 165.274L270.915 165.055C274.493 165.014 278.071 164.925 281.657 164.925L292.399 164.868L291.993 165.274V156.195L292.358 156.561C290.589 156.561 288.821 156.561 287.044 156.512L281.705 156.423L270.915 156.195Z" fill="#EBEBEB"/>
<path d="M83.3629 106.372L94.0074 106.145L99.4107 106.055C101.22 106.055 103.029 106.055 104.847 106.015H105.204V106.38L105.252 115.458V115.864H104.847L94.1047 115.815C90.5187 115.815 86.9408 115.726 83.3629 115.686H83.152V115.467C83.152 113.925 83.225 112.4 83.2574 110.883L83.3629 106.372ZM83.3629 106.372L83.4765 110.964C83.4765 112.473 83.5657 113.966 83.582 115.45L83.3629 115.231C86.9408 115.191 90.5187 115.101 94.1047 115.101L104.847 115.045L104.441 115.45V106.372L104.806 106.737C103.029 106.737 101.269 106.737 99.4919 106.688L94.1534 106.599L83.3629 106.372Z" fill="#EBEBEB"/>
<path d="M32.3148 0H31.5034V79.1682H32.3148V0Z" fill="#C7C7C7"/>
<path d="M59.3966 105.665L57.1898 110.525H6.62048L4.42182 105.665L25.946 90.7613H37.8724L59.3966 105.665Z" fill="#EBEBEB"/>
<path d="M39.3651 76.4095L37.8723 90.7617H25.946L24.4531 76.4095H39.3651Z" fill="#DBDBDB"/>
<path d="M59.3965 105.666L57.1897 110.526H6.62036L4.41358 105.666H59.3965Z" fill="#DBDBDB"/>
<path d="M91.338 0H90.5267V63.4855H91.338V0Z" fill="#C7C7C7"/>
<path d="M118.42 89.9837L116.213 94.8435H65.6519L63.4451 89.9837L84.9693 75.0879H96.8957L118.42 89.9837Z" fill="#EBEBEB"/>
<path d="M98.3886 60.7266L96.8957 75.0869H84.9694L83.4766 60.7266H98.3886Z" fill="#DBDBDB"/>
<path d="M118.42 89.9832L116.213 94.843H65.6438L63.4451 89.9832H118.42Z" fill="#DBDBDB"/>
<path d="M171.585 376.993C260.403 376.993 332.404 371.323 332.404 364.328C332.404 357.334 260.403 351.664 171.585 351.664C82.7672 351.664 10.766 357.334 10.766 364.328C10.766 371.323 82.7672 376.993 171.585 376.993Z" fill="#EBEBEB"/>
<path d="M267.321 319.903L276.737 319.708L286.154 319.635L304.986 319.498L323.818 319.635L333.235 319.708L342.651 319.903L333.235 320.106L323.818 320.171L304.986 320.309L286.154 320.171L276.737 320.106L267.321 319.903Z" fill="#263238"/>
<path d="M302.572 183.536C302.572 183.536 283.433 180.859 287.904 157.752C287.904 157.752 309.29 162.555 302.572 183.536Z" fill="#FFC727"/>
<path opacity="0.1" d="M302.572 183.536C302.572 183.536 283.433 180.859 287.904 157.752C287.904 157.752 309.29 162.555 302.572 183.536Z" fill="black"/>
<path d="M301.607 178.717C301.234 177.549 300.796 176.397 300.301 175.269C300.301 175.123 300.301 174.977 300.253 174.831C300.253 174.515 300.196 174.198 300.171 173.882C300.115 173.192 300.074 172.502 300.033 171.813C299.952 170.434 299.863 169.046 299.847 167.667C299.847 167.594 299.725 167.594 299.725 167.667C299.725 169.054 299.725 170.434 299.725 171.821C299.725 172.511 299.79 173.2 299.839 173.89C299.839 174.044 299.839 174.19 299.839 174.344C298.762 172.044 297.477 169.847 296.001 167.781C295.347 166.861 294.649 165.977 293.908 165.128C293.145 164.259 292.334 163.424 291.563 162.564C291.515 162.507 291.434 162.564 291.482 162.645C292.858 164.167 294.093 165.809 295.174 167.553C295.75 168.43 296.301 169.338 296.796 170.255L296.618 170.182L295.936 169.906L294.37 169.314L291.288 168.17C291.231 168.17 291.19 168.251 291.288 168.275C292.31 168.681 293.316 169.087 294.322 169.549L295.807 170.182L296.553 170.49C296.712 170.573 296.881 170.633 297.056 170.669C297.445 171.367 297.867 172.056 298.176 172.77C299.07 174.559 299.853 176.402 300.52 178.287C300.52 178.417 300.61 178.547 300.658 178.685C300.153 178.392 299.627 178.137 299.084 177.922L297.105 177.021C295.766 176.405 294.427 175.78 293.145 175.05C293.08 175.05 293.024 175.123 293.089 175.155C294.403 175.878 295.693 176.64 297.007 177.354C297.664 177.711 298.33 178.06 299.003 178.384C299.563 178.717 300.17 178.96 300.804 179.107C301.443 180.857 301.862 182.68 302.054 184.534C302.273 187.147 302.248 189.783 302.305 192.404C302.305 192.404 302.37 192.404 302.378 192.404C302.565 190.035 302.67 187.634 302.686 185.248C302.674 183.028 302.31 180.824 301.607 178.717Z" fill="#263238"/>
<path d="M298.654 165.127C298.471 166.471 298.409 167.829 298.467 169.184H298.524C298.605 167.829 298.613 166.482 298.768 165.127C298.776 165.078 298.662 165.054 298.654 165.127Z" fill="#263238"/>
<path d="M293.186 166.321C292.337 165.999 291.522 165.594 290.752 165.112C290.695 165.072 290.638 165.177 290.695 165.218C291.464 165.73 292.303 166.129 293.186 166.402C293.197 166.402 293.207 166.398 293.215 166.39C293.222 166.383 293.227 166.372 293.227 166.362C293.227 166.351 293.222 166.341 293.215 166.333C293.207 166.325 293.197 166.321 293.186 166.321Z" fill="#263238"/>
<path d="M303.181 220.225C303.181 218.107 303.124 215.989 303.1 213.88C303.059 206.854 303.003 199.828 302.881 192.786C302.778 187.215 302.648 181.641 302.491 176.065C302.49 176.049 302.485 176.034 302.477 176.022C302.468 176.009 302.456 175.998 302.443 175.992V171.424C302.443 171.383 302.394 171.367 302.354 171.367C302.313 171.367 302.256 171.367 302.256 171.424V176C302.256 176 302.207 176.04 302.207 176.065C301.932 185.987 301.68 195.917 301.615 205.84C301.615 207.86 301.615 209.896 301.615 211.9C301.55 218.391 301.526 224.863 301.542 231.315V234.406C301.542 240.329 301.607 246.252 301.607 252.166C301.607 252.491 301.956 252.645 302.337 252.661C302.719 252.677 303.222 252.507 303.222 252.142C303.222 245.611 303.27 239.088 303.27 232.557C303.197 228.451 303.214 224.338 303.181 220.225Z" fill="#263238"/>
<path d="M295.19 213.799C295.19 213.799 285.981 206.975 277.243 211.584C268.505 216.192 267.134 233.96 267.134 233.96C267.134 233.96 279.969 235.793 288.05 228.102C295.831 220.678 295.19 213.799 295.19 213.799Z" fill="#FFC727"/>
<path opacity="0.1" d="M295.19 213.799C295.19 213.799 285.981 206.975 277.243 211.584C268.505 216.192 267.134 233.96 267.134 233.96C267.134 233.96 279.969 235.793 288.05 228.102C295.831 220.678 295.19 213.799 295.19 213.799Z" fill="black"/>
<path d="M297.696 214.189C296.006 213.516 294.173 213.276 292.366 213.491C291.993 213.429 291.616 213.391 291.238 213.377L289.94 213.28L287.255 213.093C285.437 212.956 283.62 212.842 281.803 212.663C281.738 212.663 281.73 212.769 281.803 212.777C283.596 213.004 285.381 213.264 287.182 213.442C288.107 213.54 289.032 213.637 289.956 213.702L290.63 213.767C290.354 213.824 290.078 213.889 289.819 213.97C288.373 214.386 286.975 214.954 285.648 215.665C284.926 215.795 284.204 215.998 283.49 216.168C282.354 216.436 281.219 216.728 280.091 216.98C277.852 217.572 275.637 218.229 273.422 218.87C273.407 218.87 273.392 218.876 273.382 218.887C273.371 218.897 273.365 218.912 273.365 218.927C273.365 218.942 273.371 218.956 273.382 218.967C273.392 218.978 273.407 218.984 273.422 218.984C275.637 218.44 277.868 217.945 280.091 217.418L283.336 216.606C283.612 216.533 283.896 216.477 284.147 216.412C281.676 217.94 279.468 219.858 277.608 222.091C275.809 224.29 274.281 226.698 273.057 229.263C273.057 229.328 273.114 229.393 273.154 229.328C274.667 226.693 276.516 224.266 278.655 222.107C278.655 222.229 278.574 222.351 278.541 222.472L278.03 224.095C277.689 225.182 277.341 226.261 277.016 227.34C277.016 227.413 277.105 227.438 277.13 227.34C277.519 226.294 277.884 225.231 278.257 224.176C278.436 223.657 278.622 223.138 278.801 222.626C278.898 222.351 278.987 222.083 279.077 221.815C279.111 221.733 279.141 221.649 279.166 221.564C280.189 220.569 281.273 219.64 282.411 218.781C283.923 217.667 285.556 216.728 287.279 215.982C287.279 216.144 287.222 216.306 287.19 216.452C287.101 216.874 287.003 217.264 286.914 217.71C286.736 218.586 286.565 219.462 286.395 220.33C286.054 222.115 285.835 223.916 285.502 225.701C285.502 225.716 285.508 225.731 285.519 225.741C285.53 225.752 285.544 225.758 285.559 225.758C285.574 225.758 285.589 225.752 285.599 225.741C285.61 225.731 285.616 225.716 285.616 225.701C286.03 223.916 286.557 222.148 286.963 220.355C287.157 219.454 287.36 218.562 287.547 217.661C287.636 217.239 287.717 216.85 287.806 216.396C287.855 216.16 287.904 215.925 287.936 215.69C288.099 215.625 288.261 215.544 288.431 215.487C290.865 214.586 293.518 213.937 296.09 214.432C297.309 214.659 298.453 215.183 299.419 215.959C300.386 216.734 301.146 217.737 301.631 218.878C301.721 219.073 302.037 218.951 301.988 218.748C301.67 217.71 301.117 216.76 300.373 215.969C299.629 215.179 298.713 214.569 297.696 214.189Z" fill="#263238"/>
<path d="M283.604 221.806L282.793 225.303C282.502 226.423 282.288 227.561 282.152 228.71C282.152 228.751 282.217 228.751 282.225 228.71C282.573 227.586 282.844 226.439 283.036 225.278C283.264 224.126 283.483 222.974 283.71 221.822C283.708 221.811 283.702 221.8 283.693 221.792C283.685 221.784 283.674 221.779 283.663 221.777C283.651 221.775 283.639 221.777 283.629 221.782C283.619 221.787 283.61 221.796 283.604 221.806Z" fill="#263238"/>
<path d="M274.704 224.735C273.527 225.335 272.392 226.009 271.167 226.496C271.16 226.499 271.153 226.503 271.148 226.509C271.143 226.514 271.139 226.521 271.136 226.528C271.134 226.535 271.133 226.543 271.133 226.551C271.133 226.558 271.135 226.566 271.138 226.573C271.141 226.58 271.146 226.586 271.151 226.591C271.157 226.596 271.164 226.6 271.171 226.603C271.178 226.605 271.186 226.607 271.193 226.606C271.201 226.606 271.208 226.604 271.215 226.601C272.417 226.057 273.59 225.45 274.728 224.784C274.728 224.784 274.728 224.735 274.704 224.735Z" fill="#263238"/>
<path d="M297.258 201.271C297.258 201.271 286.006 201.985 280.773 194.57C275.54 187.154 276.716 176.55 276.716 176.55C276.716 176.55 288.529 177.986 293.226 183.317C297.924 188.647 297.258 201.271 297.258 201.271Z" fill="#FFC727"/>
<path d="M302.54 212.371C302.151 211.17 301.664 209.978 301.209 208.793C300.755 207.609 300.309 206.538 299.814 205.426C298.808 203.158 297.681 200.946 296.439 198.798C295.628 197.427 294.816 196.104 293.916 194.79C293.916 194.595 293.859 194.392 293.835 194.198C293.778 193.849 293.729 193.5 293.672 193.151C293.559 192.437 293.437 191.723 293.315 191.017C293.064 189.46 292.739 187.918 292.504 186.36C292.504 186.287 292.374 186.287 292.382 186.36C292.61 187.894 292.764 189.435 292.983 190.977C293.088 191.731 293.186 192.486 293.299 193.24C293.34 193.508 293.38 193.784 293.429 194.052C291.709 191.546 289.851 189.138 287.863 186.839C287.596 186.523 287.312 186.222 287.052 185.914C287.052 185.833 286.987 185.744 286.955 185.654C286.865 185.443 286.784 185.233 286.703 185.013L286.216 183.675C285.9 182.79 285.624 181.898 285.405 180.997C285.405 180.924 285.275 180.997 285.291 180.997C285.519 181.922 285.762 182.847 286.03 183.756C286.16 184.194 286.306 184.632 286.46 185.062L286.541 185.281C285.105 183.715 283.604 182.198 282.087 180.705C282.03 180.657 281.957 180.705 282.006 180.795C284.915 183.826 287.582 187.081 289.981 190.53C289.715 190.442 289.444 190.372 289.17 190.32C288.301 190.149 287.433 190.027 286.557 189.914C284.724 189.679 282.898 189.451 281.073 189.159C280.992 189.159 280.967 189.257 281.073 189.273C282.817 189.622 284.545 190.011 286.273 190.409C287.084 190.595 287.896 190.758 288.707 190.92C289.376 191.062 290.035 191.249 290.679 191.48L291.23 192.291C292.042 193.492 292.853 194.725 293.624 195.958L292.472 195.731C291.604 195.561 290.735 195.406 289.859 195.26C288.147 194.985 286.427 194.684 284.732 194.295C284.659 194.295 284.626 194.392 284.732 194.409C286.452 194.814 288.164 195.285 289.867 195.739C290.679 195.958 291.49 196.161 292.358 196.348L293.607 196.615C293.773 196.655 293.941 196.685 294.11 196.705C295.733 199.366 297.272 202.089 298.727 204.875C299.352 206.1 299.96 207.308 300.544 208.582C301.128 209.856 301.656 211.162 302.216 212.46C302.207 212.761 302.629 212.655 302.54 212.371Z" fill="#263238"/>
<path d="M291.02 186.513C290.809 185.434 290.581 184.363 290.346 183.268C290.346 183.195 290.216 183.228 290.233 183.268C290.443 184.323 290.646 185.378 290.841 186.44C290.998 187.501 291.212 188.551 291.482 189.588C291.402 188.554 291.247 187.526 291.02 186.513Z" fill="#263238"/>
<path d="M284.456 186.198C283.937 185.938 283.385 185.727 282.833 185.516L281.981 185.183L281.543 185.013C281.379 184.961 281.221 184.89 281.073 184.802C280.984 184.737 280.935 184.883 281.016 184.899C281.184 184.942 281.345 185.008 281.495 185.094L281.925 185.289L282.736 185.654C283.277 185.905 283.833 186.124 284.399 186.311C284.48 186.335 284.521 186.23 284.456 186.198Z" fill="#263238"/>
<path d="M308.779 192.42C308.779 192.42 315.586 179.698 325.947 177.727C336.307 175.755 342.652 186.424 342.652 186.424C342.652 186.424 335.09 196.071 325.614 197.783C316.138 199.494 308.779 192.42 308.779 192.42Z" fill="#FFC727"/>
<path d="M332.891 183.43C330.197 183.071 327.464 183.104 324.778 183.528L325.241 183.284L327.545 182.1C329.167 181.288 330.741 180.388 332.413 179.723C332.427 179.716 332.438 179.704 332.443 179.69C332.448 179.675 332.448 179.659 332.441 179.645C332.435 179.631 332.423 179.621 332.408 179.615C332.394 179.61 332.378 179.611 332.364 179.617C330.741 180.372 329.07 181.004 327.439 181.751C326.628 182.124 325.817 182.513 325.005 182.935C324.494 183.203 323.926 183.463 323.423 183.787C321.149 184.243 318.939 184.976 316.844 185.97L318.134 184.558C319.099 183.503 320.048 182.392 321.111 181.434C321.168 181.378 321.111 181.296 321.03 181.353C319.943 182.335 318.799 183.244 317.785 184.274C317.274 184.769 316.787 185.28 316.316 185.815C316.073 186.075 315.838 186.351 315.61 186.627C312.055 188.533 308.965 191.203 306.564 194.444C304.162 197.686 302.508 201.42 301.721 205.376C301.721 205.449 301.81 205.49 301.834 205.376C303.292 200.526 305.907 196.102 309.452 192.485C313.261 188.598 318.058 185.824 323.326 184.461C326.453 183.664 329.688 183.368 332.908 183.584C332.917 183.573 332.925 183.561 332.929 183.547C332.933 183.533 332.935 183.518 332.933 183.504C332.932 183.489 332.927 183.475 332.92 183.463C332.913 183.45 332.903 183.439 332.891 183.43Z" fill="#263238"/>
<path opacity="0.1" d="M342.652 186.425C342.652 186.425 335.09 196.071 325.614 197.783C318.361 199.065 312.398 195.284 309.972 193.418L309.453 192.567C309.453 192.567 314.321 188.429 323.635 186.076C332.948 183.723 342.652 186.425 342.652 186.425Z" fill="black"/>
<path d="M326.871 178.895C326.079 179.359 325.313 179.866 324.575 180.412C323.851 180.959 323.18 181.573 322.572 182.246C322.523 182.303 322.572 182.376 322.661 182.327C323.35 181.735 324.04 181.134 324.754 180.567C325.452 180.002 326.181 179.477 326.936 178.993C327.001 178.96 326.936 178.855 326.871 178.895Z" fill="#263238"/>
<path d="M332.559 181.053C332.178 181.207 331.748 181.345 331.399 181.508L330.247 181.986C330.166 181.986 330.206 182.157 330.287 182.124L331.439 181.654L332.591 181.159C332.664 181.134 332.632 181.021 332.559 181.053Z" fill="#263238"/>
<path d="M307.416 208.428C307.416 208.428 309.242 221.052 318.726 225.465C328.21 229.879 339.78 225.465 339.78 225.465C339.78 225.465 335.236 198.165 307.416 208.428Z" fill="#FFC727"/>
<path opacity="0.1" d="M307.416 208.428C307.416 208.428 309.242 221.052 318.726 225.465C328.21 229.879 339.78 225.465 339.78 225.465C339.78 225.465 335.236 198.165 307.416 208.428Z" fill="black"/>
<path d="M333.248 217.255C332.372 217.158 331.496 217.004 330.636 216.85L329.362 216.606L328.689 216.476C328.437 216.233 328.186 215.99 327.926 215.762C326.123 214.183 324.179 212.774 322.117 211.552C320.995 210.891 319.835 210.295 318.645 209.767H318.823L321.947 209.905C324.024 210.002 326.109 210.051 328.194 210.181C328.267 210.181 328.259 210.067 328.194 210.067C326.109 209.921 324.032 209.694 321.939 209.515L318.904 209.248L317.347 209.11L316.941 209.069C316.405 208.866 315.862 208.672 315.318 208.501C312.731 207.613 309.948 207.459 307.278 208.055C304.893 208.672 302.508 210.237 301.891 212.752C301.891 212.834 302.005 212.899 302.037 212.809C302.929 210.708 305.282 209.645 307.375 209.207C308.791 208.937 310.242 208.909 311.667 209.126C311.766 209.775 311.927 210.413 312.146 211.032C312.414 211.925 312.673 212.809 312.957 213.694C313.493 215.47 314.085 217.223 314.58 219C314.577 219.008 314.575 219.018 314.576 219.027C314.577 219.036 314.58 219.045 314.586 219.053C314.591 219.06 314.598 219.067 314.606 219.071C314.614 219.075 314.623 219.077 314.633 219.077C314.642 219.077 314.651 219.075 314.659 219.071C314.668 219.067 314.675 219.06 314.68 219.053C314.685 219.045 314.688 219.036 314.689 219.027C314.69 219.018 314.689 219.008 314.685 219C314.247 217.231 313.874 215.438 313.452 213.669C313.241 212.793 313.022 211.925 312.803 211.057C312.683 210.449 312.524 209.85 312.325 209.264C313.146 209.411 313.958 209.603 314.758 209.84C316.224 210.275 317.66 210.804 319.058 211.422C319.196 212.322 319.399 213.207 319.602 214.099C319.862 215.211 320.154 216.314 320.503 217.401C320.499 217.41 320.498 217.419 320.499 217.429C320.5 217.438 320.503 217.447 320.508 217.454C320.513 217.462 320.52 217.468 320.529 217.473C320.537 217.477 320.546 217.479 320.555 217.479C320.565 217.479 320.574 217.477 320.582 217.473C320.59 217.468 320.597 217.462 320.602 217.454C320.608 217.447 320.611 217.438 320.612 217.429C320.613 217.419 320.611 217.41 320.608 217.401C320.598 217.333 320.585 217.265 320.567 217.198C320.357 216.168 320.129 215.146 319.91 214.107C319.732 213.296 319.57 212.444 319.391 211.617C320.573 212.141 321.726 212.725 322.847 213.369C322.847 213.621 322.937 213.888 322.977 214.124C323.042 214.554 323.123 214.984 323.196 215.414C323.375 216.387 323.569 217.361 323.805 218.326C324.232 220.186 324.774 222.018 325.427 223.811C325.42 223.821 325.416 223.834 325.416 223.847C325.416 223.86 325.42 223.873 325.427 223.884L325.484 223.949C325.525 223.997 325.59 223.949 325.581 223.884C325.143 222.018 324.64 220.16 324.227 218.286C324.024 217.353 323.821 216.412 323.626 215.47L323.358 214.059C323.358 213.929 323.318 213.783 323.293 213.637C324.571 214.374 325.804 215.187 326.985 216.071C329.04 217.603 330.942 219.331 332.664 221.231C332.729 221.304 332.859 221.231 332.802 221.117C332.095 220.16 331.34 219.239 330.539 218.359C330.06 217.848 329.565 217.353 329.062 216.866H329.216L330.555 217.069C331.431 217.182 332.315 217.272 333.192 217.369C333.289 217.377 333.321 217.263 333.248 217.255Z" fill="#263238"/>
<path d="M326.547 221.53C326.547 221.425 326.547 221.311 326.49 221.206C326.433 221.1 326.393 220.93 326.377 220.792C326.182 219.981 326.02 219.097 325.866 218.245C325.866 218.188 325.76 218.204 325.768 218.245C325.825 219.375 326.069 220.488 326.49 221.539H326.555L326.547 221.53Z" fill="#263238"/>
<path d="M318.637 221.327C318.635 221.313 318.628 221.301 318.617 221.292C318.607 221.283 318.594 221.278 318.58 221.278C318.312 220.159 318.053 219.039 317.825 217.919C317.704 217.327 317.582 216.735 317.468 216.143C317.403 215.818 317.347 215.502 317.29 215.185C317.264 214.906 317.196 214.633 317.087 214.374C317.083 214.363 317.076 214.354 317.066 214.348C317.057 214.342 317.046 214.338 317.034 214.338C317.023 214.338 317.012 214.342 317.002 214.348C316.993 214.354 316.986 214.363 316.982 214.374C316.971 214.945 317.051 215.515 317.217 216.062C317.33 216.678 317.452 217.295 317.59 217.903C317.866 219.153 318.174 220.394 318.531 221.619C318.536 221.631 318.544 221.642 318.555 221.65C318.566 221.657 318.579 221.661 318.592 221.661C318.605 221.661 318.618 221.657 318.629 221.65C318.64 221.642 318.648 221.631 318.653 221.619C318.645 221.489 318.645 221.424 318.637 221.327Z" fill="#263238"/>
<path d="M332.38 213.619C330.644 213.384 328.916 213.133 327.18 212.922C327.107 212.922 327.074 213.027 327.18 213.035C328.916 213.287 330.652 213.506 332.38 213.733C332.429 213.741 332.453 213.628 332.38 213.619Z" fill="#263238"/>
<path d="M302.556 178.839C302.556 178.839 296.747 153.339 324.113 143.052C324.113 143.052 331.699 176.584 302.556 178.839Z" fill="#FFC727"/>
<path d="M308.463 164.389L308.755 164.211L310.305 163.343L313.477 161.574C315.57 160.406 317.631 159.189 319.732 158.045C319.74 158.042 319.746 158.037 319.752 158.031C319.757 158.025 319.761 158.018 319.764 158.011C319.766 158.003 319.767 157.995 319.766 157.987C319.765 157.979 319.763 157.971 319.759 157.964C319.755 157.957 319.749 157.951 319.743 157.947C319.736 157.942 319.729 157.939 319.721 157.937C319.713 157.935 319.705 157.936 319.697 157.937C319.689 157.939 319.682 157.943 319.675 157.948C317.566 159.092 315.424 160.163 313.298 161.282L310.167 162.905L308.885 163.586C309.793 161.858 310.775 160.154 311.846 158.524C313.274 156.341 314.84 154.264 316.471 152.228C316.544 152.139 316.422 152.017 316.341 152.098C313.937 154.429 311.813 157.032 310.013 159.854C310.013 159.765 310.013 159.676 310.013 159.595C310.013 158.962 310.053 158.329 310.069 157.688C310.069 156.447 310.029 155.205 310.069 153.964C310.069 153.957 310.068 153.949 310.065 153.942C310.062 153.935 310.058 153.929 310.053 153.924C310.047 153.919 310.041 153.914 310.034 153.912C310.027 153.909 310.02 153.907 310.013 153.907C310.005 153.907 309.998 153.909 309.991 153.912C309.984 153.914 309.978 153.919 309.972 153.924C309.967 153.929 309.963 153.935 309.96 153.942C309.957 153.949 309.956 153.957 309.956 153.964C309.899 155.189 309.753 156.398 309.688 157.631C309.647 158.24 309.623 158.848 309.607 159.465C309.607 159.789 309.566 160.171 309.607 160.528C309.047 161.428 308.503 162.337 307.984 163.262C307.069 164.92 306.256 166.632 305.55 168.389C305.55 167.756 305.477 167.124 305.445 166.483C305.364 165.095 305.193 163.7 305.137 162.304C305.132 162.292 305.124 162.281 305.113 162.274C305.102 162.266 305.089 162.262 305.076 162.262C305.062 162.262 305.049 162.266 305.039 162.274C305.028 162.281 305.019 162.292 305.015 162.304C305.015 163.7 305.015 165.095 305.015 166.491C305.015 167.189 305.055 167.886 305.104 168.576L305.153 169.387C304.279 171.663 303.587 174.004 303.084 176.389C302.613 178.933 302.274 181.501 302.07 184.08C302.07 184.08 302.07 184.08 302.07 184.08C302.362 181.758 302.848 179.465 303.522 177.225C303.863 176.024 304.22 174.791 304.601 173.638C305.745 173.103 306.832 172.43 307.936 171.821C309.039 171.213 310.223 170.572 311.367 169.947C313.647 168.689 315.927 167.416 318.288 166.312C318.353 166.312 318.288 166.182 318.223 166.207C315.838 167.294 313.436 168.316 311.092 169.452C309.923 170.044 308.779 170.669 307.644 171.31C306.694 171.845 305.713 172.381 304.804 172.998C305.072 172.186 305.347 171.415 305.615 170.628C306.483 168.543 307.416 166.442 308.463 164.389Z" fill="#263238"/>
<path d="M306.159 158.565C306.154 158.552 306.146 158.542 306.135 158.534C306.124 158.526 306.111 158.522 306.098 158.522C306.085 158.522 306.072 158.526 306.061 158.534C306.05 158.542 306.042 158.552 306.037 158.565C306.143 160.017 306.191 161.469 306.345 162.913C306.345 162.994 306.475 162.994 306.467 162.913C306.418 161.453 306.264 160.017 306.159 158.565Z" fill="#263238"/>
<path d="M319.245 163.432C317.533 164.122 315.805 164.779 314.101 165.485C314.053 165.485 314.101 165.582 314.101 165.566C315.83 164.917 317.533 164.211 319.253 163.546C319.383 163.514 319.351 163.4 319.245 163.432Z" fill="#263238"/>
<path d="M321.882 151.717C320.205 152.481 318.578 153.354 317.014 154.33C317.004 154.333 316.994 154.339 316.986 154.346C316.978 154.354 316.972 154.363 316.968 154.373C316.964 154.384 316.962 154.395 316.963 154.406C316.964 154.417 316.968 154.427 316.973 154.437C316.979 154.446 316.987 154.454 316.996 154.46C317.005 154.466 317.016 154.47 317.027 154.472C317.038 154.473 317.049 154.472 317.059 154.468C317.07 154.465 317.079 154.459 317.087 154.451C318.71 153.518 320.332 152.634 321.955 151.814C322.012 151.717 321.947 151.652 321.882 151.717Z" fill="#263238"/>
<path d="M321.468 233.919H281.997V275.524H321.468V233.919Z" fill="#455A64"/>
<path d="M281.3 248.645H279.28V319.911H281.3V248.645Z" fill="#263238"/>
<path d="M323.975 248.645H321.955V319.911H323.975V248.645Z" fill="#263238"/>
<path d="M303.708 248.645H301.688V319.911H303.708V248.645Z" fill="#263238"/>
<path d="M322.961 272.855H280.294V278.615H322.961V272.855Z" fill="#263238"/>
<path d="M257.025 42.7476H119.864C118.025 42.7646 116.208 43.1436 114.515 43.863C112.823 44.5825 111.288 45.6283 110 46.9407C108.712 48.2531 107.695 49.8064 107.007 51.5119C106.319 53.2174 105.974 55.0418 105.991 56.8807V339.219C105.958 342.932 107.401 346.506 110.003 349.156C112.604 351.807 116.151 353.316 119.864 353.352H257.025C260.74 353.315 264.289 351.807 266.893 349.157C269.497 346.508 270.943 342.934 270.915 339.219V56.8807C270.945 53.1653 269.499 49.5897 266.895 46.9397C264.291 44.2897 260.741 42.7819 257.025 42.7476ZM262.234 330.497C262.234 337.929 256.668 343.941 249.805 343.941H127.101C120.221 343.941 114.656 337.929 114.656 330.497V67.582C114.656 52.4428 120.221 51.7045 127.101 51.7045H151.684C153.112 51.7045 154.28 53.3272 154.28 55.3392V56.2073C154.28 60.9211 156.86 60.9373 160.024 60.9373H216.865C220.062 60.9373 222.626 60.9373 222.626 56.2073V55.3392C222.626 53.3272 223.778 51.7045 225.23 51.7045H249.805C256.668 51.7045 262.234 53.7166 262.234 67.582V330.497Z" fill="#263238"/>
<path d="M262.234 67.5811V121.526H114.655V67.5811C114.655 52.4419 120.221 51.7036 127.101 51.7036H151.684C153.112 51.7036 154.28 53.3263 154.28 55.3383V56.2065C154.28 60.9202 156.86 60.9364 160.024 60.9364H216.865C220.062 60.9364 222.625 60.9364 222.625 56.2065V55.3383C222.625 53.3263 223.778 51.7036 225.23 51.7036H249.805C256.668 51.7036 262.234 53.7157 262.234 67.5811Z" fill="#0064D2"/>
<path d="M147.433 57.6027L147.198 57.838L147.068 57.976C146.46 57.369 145.635 57.0282 144.776 57.0282C143.917 57.0282 143.092 57.369 142.484 57.976L142.379 57.8461L142.151 57.6109C142.249 57.5216 142.346 57.4324 142.452 57.3512C142.92 56.966 143.478 56.7064 144.074 56.5967C144.228 56.5967 144.383 56.5967 144.537 56.5318C144.691 56.4669 144.926 56.5318 144.934 56.5318H145.251C145.528 56.5691 145.8 56.6371 146.062 56.7346C146.259 56.8073 146.449 56.8969 146.63 57.0024C146.823 57.1154 147.008 57.2428 147.182 57.3837L147.425 57.6109L147.433 57.6027Z" fill="white"/>
<path d="M143.238 58.7304L142.865 58.3572C143.269 57.9242 143.806 57.6386 144.391 57.5459C144.806 57.4846 145.231 57.5216 145.629 57.654C146.028 57.7865 146.39 58.0107 146.687 58.3086L146.313 58.6818C145.906 58.274 145.353 58.045 144.776 58.045C144.199 58.045 143.646 58.274 143.238 58.6818V58.7304Z" fill="white"/>
<path d="M145.932 59.1039L145.559 59.4771C145.453 59.3698 145.327 59.2856 145.187 59.2297C145.048 59.1738 144.898 59.1476 144.748 59.1525C144.597 59.149 144.448 59.1759 144.309 59.2317C144.169 59.2875 144.043 59.371 143.936 59.4771L143.571 59.1039C143.723 58.943 143.906 58.8149 144.109 58.7273C144.312 58.6397 144.531 58.5945 144.752 58.5945C144.973 58.5945 145.191 58.6397 145.394 58.7273C145.597 58.8149 145.78 58.943 145.932 59.1039Z" fill="white"/>
<path d="M145.113 59.8181C145.113 59.8855 145.093 59.9514 145.055 60.0074C145.018 60.0634 144.965 60.1071 144.902 60.1329C144.84 60.1587 144.772 60.1654 144.705 60.1523C144.639 60.1391 144.579 60.1067 144.531 60.059C144.483 60.0114 144.451 59.9507 144.438 59.8846C144.425 59.8185 144.431 59.75 144.457 59.6877C144.483 59.6254 144.527 59.5722 144.583 59.5348C144.639 59.4973 144.705 59.4773 144.772 59.4773C144.862 59.4773 144.949 59.5132 145.013 59.5771C145.077 59.641 145.113 59.7277 145.113 59.8181Z" fill="white"/>
<path d="M124.277 58.325C124.277 58.1308 124.335 57.941 124.443 57.7796C124.551 57.6182 124.704 57.4923 124.883 57.418C125.063 57.3437 125.26 57.3243 125.451 57.3622C125.641 57.4 125.816 57.4935 125.953 57.6308C126.091 57.7681 126.184 57.943 126.222 58.1335C126.26 58.3239 126.24 58.5213 126.166 58.7007C126.092 58.8801 125.966 59.0334 125.805 59.1412C125.643 59.2491 125.453 59.3067 125.259 59.3067C124.999 59.3067 124.749 59.2033 124.565 59.0192C124.381 58.8351 124.277 58.5854 124.277 58.325Z" fill="white"/>
<path d="M127.361 58.325C127.361 58.1305 127.419 57.9403 127.527 57.7787C127.635 57.6171 127.789 57.4913 127.969 57.4172C128.149 57.3432 128.346 57.3242 128.537 57.3628C128.728 57.4013 128.903 57.4956 129.04 57.6337C129.177 57.7718 129.269 57.9475 129.306 58.1385C129.343 58.3294 129.323 58.5271 129.247 58.7063C129.172 58.8855 129.045 59.0383 128.882 59.1452C128.719 59.2521 128.529 59.3083 128.334 59.3066C128.206 59.3067 128.079 59.2812 127.96 59.2318C127.841 59.1823 127.734 59.1099 127.643 59.0186C127.553 58.9274 127.481 58.8191 127.433 58.7C127.384 58.581 127.36 58.4535 127.361 58.325Z" fill="white"/>
<path d="M130.436 58.325C130.436 58.1308 130.493 57.941 130.601 57.7796C130.709 57.6182 130.862 57.4923 131.042 57.418C131.221 57.3437 131.419 57.3243 131.609 57.3622C131.799 57.4 131.974 57.4935 132.112 57.6308C132.249 57.7681 132.342 57.943 132.38 58.1335C132.418 58.3239 132.399 58.5213 132.324 58.7007C132.25 58.8801 132.124 59.0334 131.963 59.1412C131.801 59.2491 131.612 59.3067 131.418 59.3067C131.157 59.3067 130.907 59.2033 130.723 59.0192C130.539 58.8351 130.436 58.5854 130.436 58.325Z" fill="white"/>
<path d="M133.519 58.325C133.519 58.1308 133.576 57.941 133.684 57.7796C133.792 57.6182 133.945 57.4923 134.125 57.418C134.304 57.3437 134.501 57.3243 134.692 57.3622C134.882 57.4 135.057 57.4935 135.194 57.6308C135.332 57.7681 135.425 57.943 135.463 58.1335C135.501 58.3239 135.482 58.5213 135.407 58.7007C135.333 58.8801 135.207 59.0334 135.046 59.1412C134.884 59.2491 134.694 59.3067 134.5 59.3067C134.24 59.3067 133.99 59.2033 133.806 59.0192C133.622 58.8351 133.519 58.5854 133.519 58.325Z" fill="white"/>
<path d="M136.601 58.325C136.602 58.1305 136.659 57.9403 136.768 57.7787C136.876 57.6171 137.03 57.4913 137.209 57.4172C137.389 57.3432 137.587 57.3242 137.778 57.3628C137.968 57.4013 138.143 57.4956 138.28 57.6337C138.417 57.7718 138.51 57.9475 138.547 58.1385C138.584 58.3294 138.563 58.5271 138.488 58.7063C138.412 58.8855 138.285 59.0383 138.123 59.1452C137.96 59.2521 137.77 59.3083 137.575 59.3066C137.447 59.3067 137.319 59.2812 137.201 59.2318C137.082 59.1823 136.974 59.1099 136.884 59.0186C136.793 58.9274 136.722 58.8191 136.673 58.7C136.625 58.581 136.6 58.4535 136.601 58.325Z" fill="white"/>
<path d="M251.159 60.4592H243.2V56.792H251.159V60.4592ZM243.606 60.0535H250.754V57.1815H243.606V60.0535Z" fill="white"/>
<path d="M248.993 57.4004H243.858V59.8344H248.993V57.4004Z" fill="white"/>
<path d="M251.874 57.635H251.168V59.6065H251.874V57.635Z" fill="white"/>
<path d="M196.201 55.0478H180.697C180.571 55.0478 180.447 55.023 180.33 54.9749C180.214 54.9268 180.109 54.8563 180.02 54.7674C179.931 54.6785 179.86 54.573 179.812 54.4568C179.764 54.3407 179.739 54.2162 179.739 54.0904C179.739 53.9647 179.764 53.8402 179.812 53.7241C179.86 53.6079 179.931 53.5024 180.02 53.4135C180.109 53.3246 180.214 53.2541 180.33 53.206C180.447 53.1579 180.571 53.1331 180.697 53.1331H196.201C196.327 53.1331 196.451 53.1579 196.567 53.206C196.684 53.2541 196.789 53.3246 196.878 53.4135C196.967 53.5024 197.037 53.6079 197.086 53.7241C197.134 53.8402 197.158 53.9647 197.158 54.0904C197.158 54.2162 197.134 54.3407 197.086 54.4568C197.037 54.573 196.967 54.6785 196.878 54.7674C196.789 54.8563 196.684 54.9268 196.567 54.9749C196.451 55.023 196.327 55.0478 196.201 55.0478Z" fill="white"/>
<path d="M121.933 123.232C121.475 127.496 119.347 131.406 116.014 134.106C112.682 136.806 108.416 138.077 104.149 137.641C100.692 137.288 97.4429 135.822 94.8919 133.462L86.7787 134.655L90.8353 127.653C89.878 125.366 89.4576 122.889 89.6066 120.414C89.7556 117.939 90.4698 115.531 91.6946 113.374C92.9193 111.218 94.622 109.372 96.6717 107.976C98.7215 106.58 101.064 105.673 103.519 105.324C105.974 104.975 108.476 105.193 110.834 105.962C113.191 106.731 115.341 108.029 117.119 109.759C118.896 111.488 120.253 113.601 121.087 115.937C121.92 118.272 122.207 120.768 121.925 123.232H121.933Z" fill="white"/>
<path d="M121.933 123.232C121.625 126.212 120.502 129.05 118.688 131.435C117.795 132.633 116.725 133.689 115.515 134.566C114.325 135.473 113.011 136.205 111.613 136.741C110.213 137.288 108.744 137.637 107.248 137.779C106.501 137.848 105.75 137.864 105.001 137.828C104.25 137.806 103.501 137.727 102.762 137.592C99.7773 137.044 97.0045 135.676 94.7539 133.641L94.9486 133.698L86.8354 134.939L86.2432 135.029L86.5433 134.509L90.5999 127.5V127.775C89.6501 125.455 89.2462 122.948 89.4192 120.447C89.5922 117.946 90.3376 115.518 91.5978 113.35C92.8584 111.189 94.592 109.342 96.6686 107.947C98.7416 106.576 101.098 105.692 103.56 105.361C106.023 105.029 108.529 105.259 110.891 106.032C113.233 106.826 115.368 108.135 117.138 109.862C118.895 111.584 120.239 113.681 121.069 115.997C121.9 118.312 122.195 120.786 121.933 123.232ZM121.933 123.232C122.191 120.794 121.886 118.329 121.041 116.027C120.197 113.726 118.835 111.648 117.062 109.956C115.288 108.263 113.15 106.999 110.811 106.263C108.473 105.527 105.996 105.337 103.573 105.708C101.175 106.069 98.8906 106.973 96.8957 108.353C94.9064 109.736 93.2447 111.539 92.0278 113.634C90.831 115.731 90.1264 118.073 89.9671 120.482C89.82 122.888 90.2108 125.296 91.1111 127.532L91.1679 127.678L91.0867 127.808L87.0301 134.801L86.7381 134.371L94.8512 133.236H94.9648L95.0459 133.309C97.207 135.334 99.8903 136.717 102.794 137.3C103.518 137.45 104.254 137.539 104.993 137.568C105.73 137.621 106.47 137.621 107.208 137.568C108.686 137.452 110.141 137.133 111.532 136.619C112.931 136.114 114.246 135.403 115.434 134.509C116.035 134.062 116.606 133.577 117.146 133.057C117.672 132.533 118.162 131.975 118.615 131.386C120.451 129.026 121.599 126.204 121.933 123.232Z" fill="#263238"/>
<path d="M103.938 130.777L97.0256 123.775L99.3459 121.479L103.386 125.568L111.775 112.417L114.534 114.169L103.938 130.777Z" fill="#FFC727"/>
<path d="M54.9669 257.78H58.1067L58.1067 210.894H54.9669L54.9669 257.78Z" fill="#DBDBDB"/>
<path d="M23.7313 257.78H26.871L26.871 210.894H23.7313L23.7313 257.78Z" fill="#DBDBDB"/>
<path d="M53.7338 214.586H59.1858V207.357H53.7338V214.586Z" fill="#263238"/>
<path d="M22.571 214.586H28.023V207.357H22.571V214.586Z" fill="#263238"/>
<path d="M22.5712 205.523V210.975H30.3842L31.9175 212.063H49.8395L51.3729 210.975H59.1778V205.523H51.3729L49.8395 206.61H31.9175L30.3842 205.523H22.5712Z" fill="#263238"/>
<path d="M6.4991 355.487H75.3393L75.3393 257.78H6.4991L6.4991 355.487Z" fill="#FFC727"/>
<path opacity="0.1" d="M6.4991 355.487H75.3393L75.3393 257.78H6.4991L6.4991 355.487Z" fill="black"/>
<path d="M14.0525 347.925H67.7859L67.7859 265.333H14.0525L14.0525 347.925Z" fill="#FFC727"/>
<g opacity="0.1">
<path opacity="0.1" d="M61.8958 268.853C61.7498 275.149 61.6849 281.444 61.6281 287.74L61.547 306.628L61.6281 325.515L61.7255 334.959L61.8958 344.411L62.0743 334.959L62.1717 325.515L62.2528 306.628L62.1717 287.74C62.1149 281.444 62.0581 275.149 61.8958 268.853Z" fill="black"/>
<path opacity="0.1" d="M54.9427 268.853C54.7966 275.149 54.7317 281.444 54.6749 287.74L54.5938 306.628L54.6749 325.515L54.7723 334.959L54.9427 344.411L55.1211 334.959L55.2185 325.515L55.2996 306.628L55.2185 287.74C55.1617 281.444 55.0887 275.149 54.9427 268.853Z" fill="black"/>
<path opacity="0.1" d="M47.9896 268.853C47.8435 275.149 47.7786 281.444 47.7218 287.74L47.6326 306.628L47.7137 325.515L47.8192 334.959L47.9896 344.411L48.16 334.959L48.2654 325.515L48.3466 306.628L48.2654 287.74C48.2005 281.444 48.1356 275.149 47.9896 268.853Z" fill="black"/>
<path opacity="0.1" d="M41.0367 268.853C40.8907 275.149 40.8177 281.444 40.7609 287.74L40.6798 306.628L40.7609 325.515L40.8583 334.959L41.0367 344.411L41.2071 334.959L41.3045 325.515L41.3856 306.628L41.3045 287.74C41.2477 281.444 41.1828 275.149 41.0367 268.853Z" fill="black"/>
<path opacity="0.1" d="M34.0838 268.853C33.9378 275.149 33.8648 281.444 33.808 287.74L33.7268 306.628L33.808 325.515L33.9053 334.959L34.0838 344.411L34.2542 334.959L34.3515 325.515L34.4327 306.628L34.3515 287.74C34.2947 281.444 34.2298 275.149 34.0838 268.853Z" fill="black"/>
<path opacity="0.1" d="M27.1225 268.853C26.9765 275.149 26.9116 281.444 26.8548 287.74L26.7736 306.628L26.8548 325.515L26.9521 334.959L27.1225 344.411L27.301 334.959L27.3983 325.515L27.4795 306.628L27.3983 287.74C27.3416 281.444 27.2685 275.149 27.1225 268.853Z" fill="black"/>
<path opacity="0.1" d="M20.1697 268.853C20.0237 275.149 19.9588 281.444 19.902 287.74L19.8209 306.628L19.902 325.515L19.9994 334.959L20.1697 344.411L20.3482 334.959L20.4456 325.515L20.5267 306.628L20.4456 287.74C20.3888 281.444 20.3158 275.149 20.1697 268.853Z" fill="black"/>
</g>
<path d="M75.339 347.967H62.3742L57.1817 355.487H75.339V347.967Z" fill="#263238"/>
<path d="M6.49903 347.967H19.4639L24.6482 355.487H6.49903V347.967Z" fill="#263238"/>
<path d="M75.3393 280.391L78.9578 279.677V271.572L75.3393 270.866V280.391Z" fill="#263238"/>
<path d="M75.3393 342.392L78.9578 341.686V333.581L75.3393 332.867V342.392Z" fill="#263238"/>
<path d="M0.519532 306.629C0.519532 321.484 4.138 330.595 4.138 330.595H6.49893V316.803H3.50518V296.415H6.49893V282.622H4.138C4.138 282.622 0.519532 291.774 0.519532 306.629Z" fill="#263238"/>
<path d="M2.67768 325.671C3.05994 327.342 3.54771 328.987 4.13804 330.596H6.49897V325.671H2.67768Z" fill="#DBDBDB"/>
<path d="M2.67768 287.588H6.49897V282.663H4.13804C3.54771 284.272 3.05994 285.917 2.67768 287.588Z" fill="#DBDBDB"/>
<path d="M40.566 252.507C25.7108 252.507 22.2627 256.125 22.2627 256.125V257.748H31.0574V255.468H50.0665V257.748H59.567V256.125C59.567 256.125 55.4131 252.507 40.566 252.507Z" fill="#263238"/>
<path d="M67.1772 361.515H70.3819L72.5075 355.487H65.5789L67.5666 358.505L67.1772 361.515Z" fill="#263238"/>
<path d="M64.1996 363.349C64.1996 364.223 64.4589 365.078 64.9448 365.805C65.4306 366.533 66.1212 367.099 66.9291 367.434C67.7371 367.769 68.6262 367.856 69.4839 367.686C70.3416 367.515 71.1295 367.094 71.7478 366.476C72.3662 365.857 72.7873 365.069 72.958 364.212C73.1286 363.354 73.041 362.465 72.7063 361.657C72.3717 360.849 71.8049 360.158 71.0778 359.672C70.3507 359.187 69.4958 358.927 68.6212 358.927C68.0403 358.926 67.4648 359.04 66.9279 359.262C66.3909 359.483 65.9031 359.809 65.4923 360.22C65.0815 360.631 64.7558 361.119 64.534 361.656C64.3121 362.192 64.1985 362.768 64.1996 363.349Z" fill="#263238"/>
<path d="M68.6214 365.766C69.9566 365.766 71.0391 364.683 71.0391 363.348C71.0391 362.013 69.9566 360.93 68.6214 360.93C67.2861 360.93 66.2037 362.013 66.2037 363.348C66.2037 364.683 67.2861 365.766 68.6214 365.766Z" fill="#DBDBDB"/>
<path d="M68.5485 361.848C68.5485 362.197 68.5485 362.481 68.6377 362.481C68.727 362.481 68.7351 362.197 68.7351 361.848C68.7351 361.499 68.6864 361.223 68.6377 361.223C68.5891 361.223 68.5485 361.531 68.5485 361.848Z" fill="#263238"/>
<path d="M69.6195 362.277C69.3761 362.521 69.2057 362.748 69.2382 362.789C69.2707 362.829 69.5059 362.651 69.7493 362.407C69.9927 362.164 70.1631 361.937 70.1306 361.896C70.0982 361.856 69.8629 362.034 69.6195 362.277Z" fill="#263238"/>
<path d="M70.082 363.478C70.427 363.478 70.7067 363.438 70.7067 363.388C70.7067 363.339 70.427 363.299 70.082 363.299C69.737 363.299 69.4573 363.339 69.4573 363.388C69.4573 363.438 69.737 363.478 70.082 363.478Z" fill="#263238"/>
<path d="M69.6843 364.347C69.4409 364.103 69.2137 363.933 69.1813 363.965C69.1488 363.998 69.3111 364.233 69.5545 364.477C69.7979 364.72 70.0332 364.89 70.0656 364.858C70.0981 364.825 69.9358 364.59 69.6843 364.347Z" fill="#263238"/>
<path d="M68.5727 365.433C68.622 365.433 68.662 365.153 68.662 364.808C68.662 364.463 68.622 364.183 68.5727 364.183C68.5235 364.183 68.4835 364.463 68.4835 364.808C68.4835 365.153 68.5235 365.433 68.5727 365.433Z" fill="#263238"/>
<path d="M67.6152 364.411C67.8667 364.168 68.0289 363.941 67.9965 363.908C67.964 363.876 67.7288 364.038 67.4854 364.282C67.242 364.525 67.0716 364.76 67.104 364.793C67.1365 364.825 67.3718 364.663 67.6152 364.411Z" fill="#263238"/>
<path d="M67.1528 363.397C67.5017 363.397 67.7857 363.356 67.7857 363.299C67.7857 363.243 67.5017 363.21 67.1528 363.21C66.804 363.21 66.5281 363.251 66.5281 363.299C66.5281 363.348 66.804 363.397 67.1528 363.397Z" fill="#263238"/>
<path d="M67.5507 362.342C67.7941 362.593 68.0213 362.756 68.0618 362.723C68.1024 362.691 67.9239 362.456 67.6805 362.212C67.4371 361.969 67.2099 361.798 67.1694 361.831C67.1288 361.863 67.3073 362.099 67.5507 362.342Z" fill="#263238"/>
<path d="M14.6606 361.515H11.4559L9.33027 355.487H16.2508L14.2712 358.505L14.6606 361.515Z" fill="#263238"/>
<path d="M17.6385 363.349C17.6385 364.223 17.3791 365.078 16.8933 365.805C16.4074 366.533 15.7168 367.099 14.9089 367.434C14.1009 367.769 13.2119 367.856 12.3542 367.686C11.4964 367.515 10.7086 367.094 10.0902 366.476C9.47181 365.857 9.05068 365.069 8.88007 364.212C8.70946 363.354 8.79703 362.465 9.13169 361.657C9.46636 360.849 10.0331 360.158 10.7602 359.672C11.4874 359.187 12.3423 358.927 13.2168 358.927C13.7977 358.926 14.3732 359.04 14.9102 359.262C15.4471 359.483 15.935 359.809 16.3458 360.22C16.7566 360.631 17.0822 361.119 17.3041 361.656C17.5259 362.192 17.6395 362.768 17.6385 363.349Z" fill="#263238"/>
<path d="M15.6343 363.348C15.6343 363.83 15.4915 364.3 15.2241 364.7C14.9566 365.101 14.5765 365.413 14.1317 365.597C13.687 365.781 13.1976 365.829 12.7255 365.735C12.2533 365.642 11.8196 365.41 11.4793 365.069C11.1389 364.729 10.907 364.295 10.8131 363.823C10.7192 363.351 10.7674 362.862 10.9516 362.417C11.1359 361.972 11.4478 361.592 11.8481 361.324C12.2483 361.057 12.7189 360.914 13.2003 360.914C13.8458 360.914 14.4649 361.171 14.9214 361.627C15.3778 362.084 15.6343 362.703 15.6343 363.348Z" fill="#DBDBDB"/>
<path d="M13.168 362.504C13.2173 362.504 13.2572 362.225 13.2572 361.88C13.2572 361.535 13.2173 361.255 13.168 361.255C13.1187 361.255 13.0787 361.535 13.0787 361.88C13.0787 362.225 13.1187 362.504 13.168 362.504Z" fill="#263238"/>
<path d="M12.2186 362.277C12.462 362.521 12.6323 362.748 12.5918 362.789C12.5512 362.829 12.3322 362.651 12.0807 362.407C11.8291 362.164 11.6669 361.937 11.7074 361.896C11.748 361.856 11.9671 362.034 12.2186 362.277Z" fill="#263238"/>
<path d="M11.7561 363.299C12.0968 363.299 12.3808 363.299 12.3808 363.388C12.3808 363.478 12.0968 363.486 11.7561 363.486C11.4153 363.486 11.1232 363.437 11.1232 363.388C11.1232 363.34 11.4072 363.299 11.7561 363.299Z" fill="#263238"/>
<path d="M12.1458 364.347C12.3892 364.103 12.6245 363.933 12.6569 363.965C12.6894 363.998 12.5271 364.233 12.2756 364.477C12.0241 364.72 11.8051 364.89 11.7645 364.858C11.7239 364.825 11.9024 364.59 12.1458 364.347Z" fill="#263238"/>
<path d="M13.168 364.808C13.168 364.459 13.168 364.183 13.2573 364.183C13.3465 364.183 13.3546 364.459 13.3546 364.808C13.3546 365.157 13.3546 365.441 13.2573 365.441C13.1599 365.441 13.168 365.157 13.168 364.808Z" fill="#263238"/>
<path d="M14.1904 364.411C13.947 364.168 13.7766 363.941 13.8171 363.908C13.8577 363.876 14.0768 364.038 14.3202 364.282C14.5636 364.525 14.742 364.76 14.7015 364.793C14.6609 364.825 14.4581 364.663 14.1904 364.411Z" fill="#263238"/>
<path d="M14.6771 363.397C15.0222 363.397 15.3019 363.353 15.3019 363.3C15.3019 363.246 15.0222 363.202 14.6771 363.202C14.3321 363.202 14.0524 363.246 14.0524 363.3C14.0524 363.353 14.3321 363.397 14.6771 363.397Z" fill="#263238"/>
<path d="M14.2875 362.342C14.0441 362.593 13.8088 362.756 13.7763 362.723C13.7439 362.691 13.9062 362.456 14.1577 362.212C14.4092 361.969 14.6282 361.798 14.6607 361.831C14.6931 361.863 14.5309 362.099 14.2875 362.342Z" fill="#263238"/>
<path d="M116.481 373.27C114.599 373.505 63.2829 361.53 61.6116 359.916C61.4088 359.737 63.8346 349.888 63.8346 349.888C64.646 345.831 76.4668 312.73 76.4668 312.73L110.015 321.013L97.342 351.689C97.342 351.689 103.735 356.013 109.236 360.143C111.669 361.85 113.991 363.709 116.189 365.709C117.828 367.672 118.355 373.051 116.481 373.27Z" fill="#AD6359"/>
<path d="M116.481 373.271C114.598 373.506 63.2827 361.531 61.6195 359.916C61.4167 359.738 63.8425 349.88 63.8425 349.88C64.1102 348.558 65.7248 344.079 67.7936 338.668L99.9055 346.148L97.3418 351.69C97.3418 351.69 103.735 356.014 109.236 360.143C111.665 361.855 113.987 363.714 116.189 365.709C117.836 367.681 118.355 373.052 116.481 373.271Z" fill="#EBEBEB"/>
<path d="M116.627 373.416C114.68 373.619 62.9502 362.058 61.2627 360.33C60.6137 359.705 65.2057 343.041 65.2219 342.943L98.3318 350.245L98.1938 350.805C98.1938 350.805 114.834 363.567 116.497 365.62C118.16 367.672 118.566 373.205 116.627 373.416Z" fill="#FFC727"/>
<path d="M116.489 371.283C107.816 369.149 72.6051 361.182 63.8997 359.697C63.8267 359.697 63.8186 359.697 63.8997 359.754C72.451 362.091 107.711 369.733 116.473 371.429C116.643 371.461 116.676 371.332 116.489 371.283Z" fill="#263238"/>
<path d="M100.855 350.651C97.6098 349.248 93.2531 348.834 90.0808 350.651C89.9591 350.724 90.0808 350.895 90.1782 350.887C93.6896 350.565 97.2254 350.619 100.725 351.049C100.77 351.045 100.812 351.028 100.847 351C100.882 350.973 100.908 350.935 100.922 350.893C100.936 350.851 100.937 350.805 100.925 350.762C100.913 350.719 100.889 350.681 100.855 350.651Z" fill="#263238"/>
<path d="M102.997 352.703C99.7112 351.292 95.395 350.878 92.2227 352.703C92.101 352.776 92.2227 352.955 92.3201 352.938C95.8317 352.615 99.3679 352.672 102.867 353.109C102.914 353.107 102.958 353.09 102.995 353.062C103.032 353.034 103.059 352.995 103.073 352.951C103.087 352.907 103.088 352.86 103.074 352.815C103.06 352.771 103.033 352.732 102.997 352.703Z" fill="#263238"/>
<path d="M105.139 354.749C101.893 353.337 97.5366 352.923 94.3643 354.749C94.2426 354.822 94.3643 355 94.4617 354.984C97.9736 354.669 101.509 354.726 105.009 355.155C105.055 355.152 105.1 355.136 105.136 355.108C105.173 355.08 105.201 355.041 105.215 354.997C105.229 354.953 105.229 354.905 105.216 354.861C105.202 354.817 105.175 354.777 105.139 354.749Z" fill="#263238"/>
<path d="M106.996 344.177C106.063 342.027 103.362 342.295 101.666 343.179C98.77 344.739 96.3377 347.037 94.6158 349.84C94.6075 349.852 94.6022 349.867 94.6002 349.881C94.5982 349.896 94.5996 349.911 94.6043 349.925C94.609 349.939 94.6169 349.952 94.6273 349.963C94.6377 349.973 94.6504 349.981 94.6644 349.986C94.646 350.053 94.6439 350.122 94.6582 350.19C94.6724 350.257 94.7027 350.32 94.7465 350.374C94.7902 350.427 94.8462 350.469 94.9095 350.496C94.9729 350.523 95.0419 350.535 95.1107 350.53C98.1774 350.116 101.512 350.059 104.36 348.712C106.023 347.934 107.873 346.222 106.996 344.177ZM99.6297 348.956C98.1288 349.191 96.6197 349.361 95.1269 349.654C96.4633 348.316 97.866 347.046 99.3295 345.848C100.045 345.282 100.799 344.764 101.585 344.299C102.818 343.601 107.305 342.53 105.852 346.157C105.057 348.153 101.423 348.672 99.6297 348.956Z" fill="#263238"/>
<path d="M86.0893 346.992C88.653 348.826 91.9145 349.499 94.8596 350.465C95.1598 350.562 95.3951 350.27 95.3951 350.002C95.4098 350.001 95.424 349.997 95.4365 349.989C95.449 349.981 95.4593 349.97 95.4665 349.957C95.4737 349.944 95.4777 349.93 95.4779 349.915C95.4782 349.9 95.4748 349.886 95.4681 349.873C94.2949 346.807 92.3363 344.105 89.7889 342.035C88.2798 340.859 85.6755 340.104 84.3612 342.035C83.0468 343.966 84.5964 345.921 86.0893 346.992ZM85.0914 344.201C84.3287 340.372 88.5476 342.238 89.6266 343.155C90.3149 343.758 90.9626 344.406 91.5657 345.094C92.785 346.536 93.9304 348.039 94.9975 349.597C93.5858 349.037 92.1336 348.599 90.6976 348.088C88.9857 347.479 85.5132 346.311 85.0914 344.201Z" fill="#263238"/>
<path d="M99.9623 350.537L64.1751 342.521C64.1751 342.521 93.6989 260.23 91.0784 256.765C89.7721 255.029 56.6136 254.518 46.0665 245.585C32.3715 233.984 41.5637 216.248 41.5637 216.248L78.5922 215.153C78.5922 215.153 78.146 222.885 79.5901 224.077C80.5394 224.889 124.659 228.564 129.51 243.427C135.449 261.641 99.9623 350.537 99.9623 350.537Z" fill="#0064D2"/>
<path d="M101.001 344.064C100.06 343.666 90.8189 341.046 88.7501 340.51C84.5799 339.448 80.4016 338.401 76.2152 337.419C74.0328 336.9 69.3515 335.797 69.0757 335.797C69.0455 335.797 69.0166 335.809 68.9953 335.83C68.974 335.851 68.9621 335.88 68.9621 335.91C68.9621 335.94 68.974 335.969 68.9953 335.99C69.0166 336.012 69.0455 336.024 69.0757 336.024C73.1322 337.298 77.2862 338.409 81.4158 339.537C85.5454 340.664 99.7191 344.121 100.944 344.259C101.001 344.291 101.123 344.121 101.001 344.064Z" fill="#263238"/>
<path d="M97.407 253.699C96.6687 253.058 95.5491 252.985 94.6161 252.831L78.5845 250.137C73.5786 249.326 68.5485 248.555 63.5751 247.598C59.4536 246.786 55.2591 245.732 51.6893 243.493C48.1907 241.297 45.5989 237.916 44.3875 233.968C43.2571 230.016 42.937 225.876 43.4464 221.798C43.5356 220.808 43.7222 219.81 43.9088 218.829C43.9088 218.755 43.8033 218.731 43.7871 218.829C42.4322 226.414 42.3105 235.217 47.9978 241.261C50.7725 244.206 54.5776 245.935 58.4638 247.062C62.853 248.328 67.437 248.92 71.9317 249.675L88.0201 252.32C90.592 252.742 93.2044 253.082 95.7519 253.61C96.2672 253.675 96.7521 253.889 97.1474 254.226C97.3349 254.493 97.4537 254.803 97.4934 255.127C97.533 255.451 97.4922 255.78 97.3746 256.084C97.1149 257.342 96.7742 258.583 96.4172 259.816C93.4965 269.771 73.8058 331.09 73.2298 332.186C73.1649 332.299 73.3515 332.388 73.4083 332.275C78.2762 323.545 92.5878 273.049 95.8249 263.621C96.6817 261.235 97.3836 258.796 97.9263 256.319C98.0885 255.37 98.194 254.364 97.407 253.699Z" fill="#263238"/>
<path d="M187.139 373.823C185.346 374.423 133.981 373.701 132.026 372.452C131.263 371.729 130.663 365.15 130.2 356.988L121.365 321.955L154.402 321.687L164.081 356.477C164.081 356.477 171.213 359.446 177.419 362.399C180.141 363.589 182.788 364.944 185.346 366.456C187.341 368.07 188.932 373.206 187.139 373.823Z" fill="#AD6359"/>
<path d="M188.193 373.855C186.335 374.472 133.316 374.22 131.304 372.93C130.533 372.451 130.119 364.736 129.892 355.398C129.892 355.292 129.892 355.195 129.892 355.097L164.097 354.886V355.462C164.097 355.462 184.38 364.622 186.416 366.277C188.453 367.932 190.043 373.255 188.193 373.855Z" fill="#FFC727"/>
<path d="M187.601 371.803C178.676 371.543 142.597 371.324 133.746 371.746C133.673 371.746 133.673 371.795 133.746 371.803C142.597 372.257 178.66 372.176 187.601 371.949C187.812 371.941 187.812 371.811 187.601 371.803Z" fill="#263238"/>
<path d="M167.902 354.999C164.389 354.326 160.081 354.845 157.355 357.336C157.249 357.433 157.355 357.579 157.509 357.539C160.875 356.472 164.346 355.771 167.861 355.445C167.915 355.441 167.965 355.418 168.004 355.381C168.042 355.343 168.066 355.293 168.071 355.239C168.075 355.186 168.061 355.132 168.03 355.088C167.999 355.044 167.954 355.013 167.902 354.999Z" fill="#263238"/>
<path d="M170.434 356.541C166.921 355.868 162.612 356.387 159.886 358.878C159.781 358.967 159.886 359.121 160.041 359.08C163.415 358.014 166.894 357.309 170.417 356.979C170.446 356.98 170.475 356.975 170.502 356.965C170.529 356.955 170.553 356.94 170.575 356.921C170.596 356.901 170.613 356.877 170.625 356.851C170.637 356.825 170.643 356.797 170.644 356.768C170.646 356.739 170.641 356.711 170.631 356.684C170.621 356.657 170.606 356.632 170.586 356.611C170.566 356.59 170.543 356.573 170.517 356.561C170.491 356.549 170.462 356.542 170.434 356.541Z" fill="#263238"/>
<path d="M172.965 358.083C169.444 357.41 165.144 357.929 162.418 360.412C162.312 360.509 162.418 360.655 162.572 360.622C165.939 359.558 169.409 358.853 172.924 358.521C172.953 358.524 172.982 358.521 173.01 358.512C173.037 358.504 173.063 358.49 173.085 358.471C173.107 358.453 173.126 358.43 173.139 358.405C173.153 358.379 173.161 358.351 173.164 358.322C173.166 358.294 173.163 358.265 173.155 358.237C173.146 358.209 173.132 358.184 173.114 358.162C173.095 358.139 173.073 358.121 173.047 358.107C173.022 358.094 172.994 358.086 172.965 358.083Z" fill="#263238"/>
<path d="M172.51 347.365C171.139 345.45 168.559 346.294 167.083 347.519C164.595 349.671 162.715 352.438 161.631 355.543C161.625 355.556 161.623 355.571 161.625 355.585C161.627 355.599 161.632 355.613 161.639 355.625C161.647 355.637 161.658 355.647 161.671 355.654C161.683 355.661 161.697 355.664 161.712 355.665C161.71 355.733 161.724 355.802 161.752 355.864C161.781 355.926 161.824 355.981 161.877 356.024C161.931 356.068 161.993 356.098 162.06 356.113C162.127 356.128 162.197 356.127 162.263 356.111C165.168 355.048 168.413 354.277 170.912 352.355C172.397 351.235 173.808 349.166 172.51 347.365ZM166.344 353.604C164.925 354.156 163.489 354.643 162.093 355.227C163.094 353.632 164.177 352.092 165.338 350.61C165.918 349.902 166.544 349.232 167.212 348.606C168.267 347.665 172.413 345.661 171.78 349.507C171.464 351.657 168.032 352.923 166.344 353.604Z" fill="#263238"/>
<path d="M152.698 354.546C155.587 355.795 158.921 355.747 162.004 356.063C162.072 356.063 162.139 356.048 162.2 356.017C162.261 355.987 162.314 355.943 162.355 355.889C162.396 355.834 162.424 355.771 162.436 355.704C162.448 355.638 162.445 355.569 162.426 355.503C162.44 355.498 162.453 355.49 162.463 355.48C162.474 355.469 162.481 355.456 162.486 355.442C162.491 355.428 162.492 355.413 162.49 355.398C162.488 355.384 162.483 355.37 162.475 355.357C160.649 352.608 158.13 350.389 155.173 348.924C153.445 348.112 150.735 347.918 149.875 350.1C149.015 352.282 151.011 353.856 152.698 354.546ZM151.116 352.112C149.55 348.534 154.069 349.459 155.319 350.116C156.123 350.554 156.896 351.047 157.631 351.593C159.133 352.742 160.576 353.966 161.955 355.26C160.454 355.017 158.937 354.895 157.428 354.708C155.627 354.441 151.984 354.043 151.116 352.112Z" fill="#263238"/>
<path d="M166.556 355.251H127.994C127.994 355.251 111.491 275.969 108.571 272.237C104.676 267.264 50.156 267.369 38.5055 251.143C28.007 236.58 36.8828 215.964 36.8828 215.964L78.1464 214.739C77.2178 219.161 75.94 223.501 74.3251 227.72C74.3251 227.72 124.026 236.88 137.949 252.06C147.335 262.364 166.556 355.251 166.556 355.251Z" fill="#0064D2"/>
<path d="M81.5294 224.88C80.3305 225.14 79.1595 225.515 78.0327 226C76.8481 226.446 75.6798 226.957 74.544 227.517C72.3025 228.627 70.1223 229.857 68.0129 231.201C67.948 231.201 68.0129 231.338 68.0778 231.298C70.3089 230.146 72.6131 229.099 74.9253 228.109L78.2598 226.673C79.407 226.237 80.5308 225.741 81.6268 225.189C81.7485 225.108 81.6673 224.848 81.5294 224.88Z" fill="#263238"/>
<path d="M79.0306 214.707C78.56 216.589 78.1463 218.48 77.6027 220.346C77.3593 221.206 77.1159 222.074 76.7914 222.901C76.5155 223.599 76.1017 224.402 75.2904 224.524C74.3574 224.702 74.0897 223.907 74.1627 223.136C74.2357 222.366 74.471 221.408 74.6414 220.565C74.8361 219.591 75.0389 218.609 75.2174 217.628C75.2985 217.141 75.3959 216.654 75.477 216.159C75.477 216.037 75.5906 215.096 75.6555 214.829C75.6555 214.829 75.6555 214.877 75.7123 214.869C75.7261 214.869 75.7394 214.864 75.7498 214.855C75.7603 214.847 75.7671 214.834 75.7691 214.82C75.7691 214.747 75.7691 214.731 75.7204 214.683C75.7076 214.673 75.6919 214.667 75.6758 214.667C75.6597 214.667 75.644 214.673 75.6312 214.683C75.4527 214.78 75.4446 215.031 75.3878 215.21C75.2336 215.68 75.0795 216.159 74.9416 216.638C74.6819 217.538 74.4223 218.439 74.1952 219.348C73.968 220.256 73.7489 221.157 73.5218 222.066C73.2849 222.734 73.2235 223.452 73.3433 224.151C73.4301 224.482 73.6198 224.778 73.8851 224.995C74.1503 225.212 74.4776 225.34 74.8199 225.359C74.7826 225.416 74.7501 225.476 74.7225 225.538C74.6414 225.725 74.5765 225.919 74.5034 226.114C74.4304 226.309 74.3736 226.503 74.3168 226.698C74.2863 226.793 74.2672 226.891 74.26 226.99C74.26 227.096 74.26 227.209 74.26 227.315C74.2461 227.353 74.248 227.396 74.2655 227.433C74.283 227.471 74.3146 227.5 74.3534 227.514C74.3921 227.528 74.4348 227.526 74.4721 227.508C74.5093 227.491 74.5381 227.459 74.5521 227.42C74.6042 227.331 74.6611 227.244 74.7225 227.161C74.7767 227.059 74.8228 226.953 74.8604 226.844C74.9253 226.658 74.974 226.463 75.0227 226.276C75.0714 226.09 75.1282 225.895 75.1687 225.7C75.2093 225.506 75.1687 225.465 75.1687 225.351C75.5618 225.314 75.9374 225.171 76.2559 224.938C76.7876 224.486 77.1789 223.892 77.3836 223.226C77.6676 222.414 77.8866 221.603 78.1057 220.792C78.6792 218.81 79.081 216.782 79.3064 214.731C79.2927 214.708 79.2735 214.688 79.2506 214.674C79.2277 214.659 79.2017 214.651 79.1748 214.648C79.1478 214.646 79.1207 214.65 79.0956 214.66C79.0705 214.67 79.0482 214.686 79.0306 214.707Z" fill="#263238"/>
<path d="M162.564 348.347C161.538 348.23 160.506 348.165 159.473 348.152L156.228 348.031C154.064 347.966 151.928 347.928 149.818 347.917C145.51 347.917 141.21 347.917 136.91 347.974C134.663 347.974 129.852 348.071 129.608 348.161C129.584 348.167 129.563 348.181 129.548 348.201C129.533 348.221 129.525 348.245 129.525 348.27C129.525 348.295 129.533 348.319 129.548 348.339C129.563 348.359 129.584 348.373 129.608 348.38C133.876 348.607 138.151 348.672 142.427 348.753C146.703 348.834 150.97 348.899 155.238 348.826C156.422 348.826 157.607 348.761 158.783 348.729C160.035 348.739 161.286 348.685 162.532 348.566C162.661 348.55 162.702 348.363 162.564 348.347Z" fill="#263238"/>
<path d="M113.065 272.748C112.704 271.563 112.157 270.443 111.443 269.43C110.577 268.58 109.473 268.014 108.278 267.807C97.9991 264.992 87.3952 263.751 76.9454 261.755C71.7898 260.83 66.6959 259.589 61.6927 258.039C56.6129 256.531 51.7584 254.348 47.2593 251.549C45.0642 250.135 43.2437 248.212 41.9533 245.942C40.7676 243.75 39.9248 241.389 39.4545 238.941C38.3307 233.353 38.3307 227.597 39.4545 222.009C39.7334 220.617 40.0854 219.241 40.5092 217.887C40.5092 217.806 40.4118 217.774 40.3794 217.887C38.446 223.274 37.6557 229.005 38.059 234.714C38.4322 239.671 39.633 244.888 42.8377 248.823C44.5008 250.738 46.5136 252.318 48.7684 253.48C51.1269 254.775 53.5658 255.919 56.0702 256.903C60.934 258.794 65.9426 260.289 71.0471 261.374C81.4725 263.678 92.1414 264.854 102.534 267.166C103.824 267.459 105.106 267.759 106.38 268.083C107.696 268.3 108.973 268.71 110.169 269.3C111.402 270.071 111.791 271.612 112.303 272.894C112.838 274.306 129.6 344.842 129.973 346.262C129.99 346.306 130.022 346.342 130.065 346.363C130.107 346.384 130.155 346.388 130.201 346.375C130.246 346.362 130.284 346.332 130.308 346.291C130.332 346.251 130.34 346.202 130.33 346.156C128.894 340.331 114.152 275.531 113.065 272.748Z" fill="#263238"/>
<path d="M110.023 274.226C109.633 272.984 109.293 271.654 108.133 270.907C106.972 270.161 90.4864 267.946 88.6609 267.662C88.5717 267.662 88.5392 267.784 88.6609 267.8C90.2836 268.068 105.488 270.794 106.851 271.248C107.43 271.412 107.947 271.746 108.335 272.205C108.743 272.839 109.036 273.539 109.203 274.274C109.674 275.751 115.751 301.275 116.627 304.69C116.692 304.95 117.065 304.828 117.016 304.577C115.791 298.192 110.51 275.8 110.023 274.226Z" fill="#263238"/>
<path d="M74.5034 227.802C82.1224 228.719 89.6526 230.263 97.0175 232.419C104.439 234.502 111.698 237.127 118.736 240.272C122.679 242.049 126.501 244.029 130.29 246.106C130.371 246.146 130.29 246.26 130.225 246.219C123.401 242.695 116.354 239.619 109.13 237.011C101.951 234.392 94.6026 232.261 87.1356 230.634C82.933 229.717 78.6979 229.011 74.4548 228.305C74.1465 228.257 74.2276 227.778 74.5034 227.802Z" fill="#263238"/>
<path d="M111.735 144.755L104.246 168.754C104.162 168.885 104.114 169.037 104.108 169.193C104.103 169.349 104.139 169.503 104.214 169.64C104.288 169.777 104.399 169.892 104.533 169.971C104.667 170.051 104.82 170.093 104.976 170.093L117.519 170.799C117.903 170.791 118.276 170.675 118.597 170.464C118.917 170.253 119.171 169.956 119.329 169.606L126.825 145.632C127.125 144.934 126.825 144.334 126.095 144.301L113.552 143.603C113.172 143.606 112.799 143.715 112.478 143.919C112.157 144.122 111.899 144.412 111.735 144.755Z" fill="#37474F"/>
<path d="M113.227 144.828L105.739 168.795C105.439 169.492 105.739 170.093 106.461 170.133L119.004 170.839C119.39 170.832 119.765 170.715 120.087 170.502C120.408 170.29 120.663 169.99 120.821 169.639L128.31 145.672C128.61 144.974 128.31 144.374 127.588 144.334L115.037 143.603C114.65 143.615 114.274 143.736 113.954 143.953C113.633 144.17 113.381 144.473 113.227 144.828Z" fill="#455A64"/>
<path d="M116.603 146.126C116.586 146.335 116.509 146.534 116.38 146.699C116.25 146.864 116.076 146.987 115.877 147.052C115.678 147.118 115.465 147.124 115.263 147.069C115.061 147.013 114.88 146.9 114.742 146.742C114.604 146.584 114.517 146.389 114.489 146.182C114.462 145.974 114.497 145.764 114.589 145.576C114.681 145.388 114.826 145.231 115.007 145.126C115.188 145.02 115.396 144.97 115.605 144.982C115.746 144.991 115.884 145.027 116.011 145.089C116.138 145.151 116.251 145.238 116.344 145.345C116.437 145.451 116.508 145.575 116.552 145.709C116.596 145.844 116.614 145.985 116.603 146.126Z" fill="#263238"/>
<path d="M69.2301 179.301C75.3393 194.87 89.9998 215.526 96.5796 216.045C99.7194 216.288 105.269 217.4 109.617 214.065C119.11 206.764 127.596 192.241 129.681 183.73C130.428 180.704 115.962 173.094 113.601 175.447C108.068 180.956 101.334 192.022 100.425 191.892C97.0745 191.413 84.5964 179.576 75.891 171.236C65.3033 161.119 66.7961 173.094 69.2301 179.301Z" fill="#F7A9A0"/>
<path d="M131.085 167.942C129.908 161.622 128.651 160.178 130.484 154.32C131.693 150.475 129.754 148.057 126.785 151.01C121.917 155.878 121.722 164.316 122.493 167.237L131.085 167.942Z" fill="#F7A9A0"/>
<path d="M128.78 186.352C128.78 186.352 132.123 177.865 131.539 171.01C131.133 166.263 129.105 156.049 116.302 149.915C113.268 148.455 107.905 148.528 112.002 152.714C114.907 155.684 117.682 156.69 119.028 158.726C119.028 158.726 112.213 159.635 110.875 162.734C109.695 165.442 108.714 168.232 107.938 171.083C108.425 171.344 108.93 171.575 109.447 171.772C109.447 171.772 108.278 174.709 110.258 179.115L128.78 186.352Z" fill="#F7A9A0"/>
<path d="M130.436 166.539C128.635 164.811 124.757 161.201 120.586 159.343C115.938 157.282 106.421 154.572 104.936 158.02C103.849 160.551 107.37 161.906 107.37 161.906C107.37 161.906 103.2 161.614 102.721 164.113C102.275 166.385 105.082 167.277 105.082 167.277C105.082 167.277 102.518 167.529 102.518 169.809C102.518 172.543 107.881 171.553 110.275 174.328C110.826 174.952 130.436 166.539 130.436 166.539Z" fill="#F7A9A0"/>
<path d="M119.232 164.624C115.692 162.524 111.597 161.553 107.492 161.841C107.386 161.841 107.338 161.939 107.435 161.947C111.458 162.386 115.414 163.309 119.215 164.697L119.232 164.624Z" fill="#263238"/>
<path d="M117.017 169.257C115.207 168.259 109.715 166.507 105.114 167.18C105.009 167.18 104.968 167.286 105.066 167.286C109.107 167.51 113.11 168.185 117 169.298C117 169.298 117.041 169.265 117.017 169.257Z" fill="#263238"/>
<path d="M129.681 191.706C129.681 191.706 115.605 213.377 108.344 215.673C101.082 217.969 96.8554 217.101 94.243 216.533C93.2417 216.224 92.3198 215.701 91.5413 214.999C84.7262 209.426 73.1001 190.522 68.5729 180.032C65.1735 172.146 66.0578 165.266 71.8182 167.862C73.7563 168.853 75.5208 170.152 77.0431 171.707C87.3143 181.533 99.3624 191.041 99.9871 190.765C100.612 190.489 107.508 181.03 107.508 181.03L129.681 191.706Z" fill="#FFC727"/>
<path opacity="0.1" d="M91.5413 214.999C84.7262 209.426 73.1001 190.522 68.5729 180.032C65.1735 172.146 66.0578 165.266 71.8182 167.862C74.455 174.068 85.9189 201.207 91.5413 214.999Z" fill="black"/>
<path d="M125.811 194.716C125 194.213 117.576 190.732 115.937 190.01C114.298 189.288 107.637 186.278 105.885 185.678C105.877 185.671 105.868 185.666 105.858 185.664C105.848 185.661 105.838 185.661 105.828 185.664C105.818 185.666 105.809 185.671 105.801 185.677C105.793 185.684 105.787 185.692 105.783 185.701C105.779 185.711 105.777 185.721 105.778 185.731C105.778 185.741 105.781 185.751 105.787 185.76C105.792 185.769 105.799 185.776 105.808 185.782C105.816 185.787 105.826 185.791 105.836 185.792C107.459 186.708 114.152 189.767 115.799 190.538C117.446 191.308 124.91 194.594 125.77 194.838C125.843 194.846 125.868 194.716 125.811 194.716Z" fill="#263238"/>
<path d="M99.9952 190.774C99.3786 191.723 98.7377 192.615 98.0886 193.508C97.4414 194.414 96.7482 195.286 96.0117 196.12C96.3961 195.05 96.9434 194.046 97.6343 193.143C98.2818 192.225 99.0801 191.424 99.9952 190.774Z" fill="#263238"/>
<path d="M82.5843 223.923C81.416 225.059 31.4307 230.259 31.1874 229.927C30.5221 229.018 39.8603 182.116 59.8755 165.954C63.4047 163.107 69.2868 164.332 71.9479 166.011C73.2866 166.863 76.9699 173.597 78.0246 179.593C79.0794 185.588 83.3226 223.233 82.5843 223.923Z" fill="#EBEBEB"/>
<path d="M61.1897 164.812C61.1897 164.812 66.6418 193.151 66.8203 194.311C66.9988 195.472 66.2037 227.024 66.2037 227.024L29.086 231.608C29.086 231.608 33.2805 215.933 33.4995 215.187C33.7186 214.44 41.6127 188.413 50.0341 176.771C57.8066 166.061 61.1897 164.812 61.1897 164.812Z" fill="#FFC727"/>
<path d="M72.7188 166.458C72.7188 166.458 76.4671 191.609 76.5725 193.232C76.678 194.854 79.5095 225.392 79.5095 225.392L84.0935 223.68C84.0935 223.68 81.5297 203.73 81.2376 202.018C80.9455 200.306 78.8037 181.735 77.9924 178.311C76.7348 172.811 72.7188 166.458 72.7188 166.458Z" fill="#FFC727"/>
<path d="M59.4535 166.036C39.5113 173.671 15.4964 193.094 16.0156 200.46C16.5916 208.655 45.223 197.905 45.077 196.672C44.9472 195.617 51.5675 187.577 61.0437 176.048C70.674 164.332 64.3863 164.154 59.4535 166.036Z" fill="#FFC727"/>
<path d="M16.0156 200.46C17.0865 206.252 25.0699 210.893 44.079 224.466C46.7077 226.341 64.9542 211.347 62.2525 209.197C58.845 206.488 45.0283 196.719 43.933 196.135C34.6515 191.178 15.2854 196.525 16.0156 200.46Z" fill="#AD6359"/>
<path d="M58.5125 206.35C58.5125 206.35 66.7392 211.705 70.1954 215.859C74.8199 221.417 76.5237 228.118 77.0673 230.974C78.2031 236.929 76.8401 252.109 72.3941 252.474C68.3375 252.815 70.5605 237.359 70.5605 237.359C70.5605 237.359 70.9337 253.48 66.0171 252.993C61.1005 252.506 64.6541 234.714 64.6541 234.714C64.6541 234.714 64.6541 251.281 59.6807 249.983C55.9081 248.993 58.2204 232.702 58.2204 232.702C58.2204 232.702 58.1311 246.941 54.2125 246.097C49.88 245.156 51.0646 229.984 51.0646 229.984C41.4667 226.155 38.4567 220.402 36.8097 216.054C36.4041 214.999 58.5125 206.35 58.5125 206.35Z" fill="#F7A9A0"/>
<path d="M70.7876 231.777C70.8931 233.667 71.0229 235.582 70.9661 237.456C70.9093 239.33 70.7876 241.245 70.5604 243.135C70.2959 245.601 69.7515 248.029 68.9378 250.372C70.0736 246.105 70.3738 239.322 70.4306 237.432C70.4874 235.541 70.6415 233.651 70.6983 231.753C70.7146 231.728 70.7795 231.736 70.7876 231.777Z" fill="#263238"/>
<path d="M63.9483 231.452C63.9483 233.886 64.1105 236.32 64.0456 238.697C63.9807 241.074 63.6805 243.395 63.4696 245.829C63.4696 246.015 63.356 245.942 63.3641 245.756C63.502 243.322 63.4452 241.115 63.5507 238.697C63.6562 236.28 63.8671 233.886 63.8833 231.477L63.9483 231.452Z" fill="#263238"/>
<path d="M58.1229 230.114C58.272 233.827 58.0382 237.547 57.4251 241.212C57.4251 241.391 57.2872 241.285 57.3034 241.099C57.6036 237.415 57.8713 234.527 57.993 230.122C58.0012 230.057 58.1229 230.041 58.1229 230.114Z" fill="#263238"/>
<path d="M62.7963 207.284C62.7963 207.284 37.6455 222.569 37.4346 222.456C37.2236 222.342 15.7481 206.521 16.0158 200.461C16.2835 194.4 35.674 191.861 43.917 196.088C52.1599 200.315 62.7963 207.284 62.7963 207.284Z" fill="#FFC727"/>
<path d="M55.1779 203.892C54.2124 204.347 46.2534 209.49 44.5415 210.651C42.8296 211.811 35.8117 216.46 34.1567 217.798C34.1394 217.809 34.1272 217.826 34.1226 217.846C34.1181 217.866 34.1216 217.887 34.1323 217.904C34.1431 217.921 34.1602 217.933 34.18 217.938C34.1998 217.942 34.2206 217.939 34.2378 217.928C36.1119 216.922 43.211 212.249 44.9715 211.105C46.7321 209.961 54.4964 204.696 55.2752 203.998C55.3401 203.941 55.2509 203.86 55.1779 203.892Z" fill="#263238"/>
<path d="M33.6616 194.108C35.6899 194.002 41.2312 194.108 45.4501 196.818C45.4987 196.818 45.4501 196.907 45.4501 196.883C41.7586 195.114 35.7143 194.222 33.7022 194.181C33.6616 194.181 33.6129 194.108 33.6616 194.108Z" fill="#263238"/>
<path d="M61.2466 208.224L62.7556 207.218V207.348L58.3745 204.59C56.9141 203.673 55.4375 202.772 53.9609 201.896C51.0159 200.095 48.0302 198.367 44.9878 196.769L44.5821 196.558L44.8417 196.184C46.9512 193.142 49.1174 190.148 51.4215 187.26C52.5736 185.805 53.75 184.377 54.9507 182.976C56.1758 181.589 57.3847 180.218 58.7152 178.92C56.3624 181.765 54.0934 184.674 51.9083 187.649C49.7259 190.619 47.5515 193.596 45.507 196.663L45.361 196.079C48.4196 197.702 51.3891 199.495 54.2855 201.344C55.7404 202.296 57.1792 203.256 58.6017 204.225C60.0377 205.198 61.425 206.22 62.8205 207.243L62.9179 207.316L62.8205 207.372L61.2466 208.224Z" fill="#263238"/>
<path d="M53.32 185.289C53.6527 184.965 53.9772 184.64 54.318 184.332C54.6587 184.023 54.9995 183.723 55.3483 183.439C56.0571 182.856 56.8113 182.329 57.6038 181.865C56.995 182.55 56.3271 183.18 55.608 183.748C55.251 184.032 54.8859 184.316 54.5046 184.559C54.1311 184.835 53.7349 185.08 53.32 185.289Z" fill="#263238"/>
<path d="M30.5869 217.142C31.8249 217.888 33.022 218.701 34.1729 219.576C34.7409 220.014 35.3169 220.452 35.8767 220.914L37.5643 222.302H37.329C38.0348 221.969 38.7488 221.645 39.4871 221.361C38.8461 221.823 38.1971 222.261 37.5399 222.683L37.4344 222.748L37.3046 222.667C36.7043 222.269 36.0958 221.855 35.5279 221.434C34.9599 221.012 34.3839 220.549 33.816 220.095C32.6873 219.169 31.6094 218.184 30.5869 217.142Z" fill="#263238"/>
<path d="M70.7147 173.922C67.8102 174.425 63.1452 169.76 61.4089 166.101C61.2954 165.849 62.8774 156.187 63.0316 154.239C63.0316 153.842 75.0796 157.931 75.0796 157.931C74.2384 160.325 73.6934 162.812 73.457 165.338C73.4164 165.622 73.5219 173.427 70.7147 173.922Z" fill="#F7A9A0"/>
<path d="M75.0391 157.93C75.0391 157.987 74.9336 158.223 74.8119 158.604C74.6091 159.245 74.2846 160.291 74.0006 161.492C73.689 162.751 73.4881 164.035 73.4002 165.33C73.4002 165.419 73.4002 165.516 73.4002 165.597V165.646C73.4002 165.8 73.4002 166.011 73.4002 166.271C73.0032 166.299 72.6046 166.299 72.2076 166.271C65.5629 165.727 63.8024 157.427 63.3724 154.255L63.5752 154.304C63.8997 154.377 64.3216 154.491 64.8246 154.637L65.2059 154.75C66.0172 154.985 66.9665 155.286 67.9644 155.561L68.9542 155.878L71.0555 156.559C71.3395 156.665 71.6315 156.762 71.8668 156.843L72.6781 157.127L73.0757 157.257L73.2542 157.322L74.2521 157.655L74.7308 157.817C74.8008 157.834 74.8687 157.859 74.9336 157.89H75.0391V157.93Z" fill="#263238"/>
<path d="M62.1554 141.234C60.8086 145.567 63.064 158.11 66.1389 160.917C70.6012 164.974 77.9355 165.387 81.3998 160.025C84.7586 154.824 81.5377 138.533 78.0977 135.985C73.027 132.245 64.135 134.833 62.1554 141.234Z" fill="#F7A9A0"/>
<path d="M74.3819 148.617C74.3819 148.617 74.3251 148.674 74.3333 148.706C74.5361 149.518 74.6172 150.532 73.9195 150.97C74.8363 150.694 74.7065 149.38 74.3819 148.617Z" fill="#263238"/>
<path d="M73.4569 147.895C72.0777 148.066 72.532 150.8 73.7977 150.638C75.0633 150.475 74.609 147.749 73.4569 147.895Z" fill="#263238"/>
<path d="M79.3147 147.952C79.3147 147.952 79.3877 147.952 79.3877 148.016C79.5013 148.868 79.7771 149.826 80.5884 149.98V150.028C79.6311 150.093 79.2822 148.779 79.3147 147.952Z" fill="#263238"/>
<path d="M79.9068 146.945C81.2536 146.621 81.8053 149.331 80.564 149.639C79.3226 149.947 78.7953 147.221 79.9068 146.945Z" fill="#263238"/>
<path d="M72.2641 146.784C72.6292 146.67 72.9537 146.5 73.3107 146.354C73.7018 146.249 74.0489 146.022 74.3005 145.705C74.3591 145.589 74.3781 145.457 74.3547 145.33C74.3312 145.202 74.2666 145.086 74.1707 144.999C73.9536 144.856 73.7021 144.773 73.4424 144.76C73.1826 144.748 72.9242 144.805 72.6941 144.926C72.193 145.099 71.7738 145.452 71.5177 145.916C71.465 146.025 71.4453 146.148 71.4612 146.268C71.477 146.389 71.5277 146.502 71.6069 146.594C71.6861 146.686 71.7905 146.753 71.9072 146.787C72.0239 146.821 72.1479 146.819 72.2641 146.784Z" fill="#263238"/>
<path d="M80.7748 145.275C80.3854 145.275 80.0284 145.21 79.639 145.178C79.2343 145.193 78.8356 145.076 78.5031 144.845C78.4127 144.753 78.3555 144.634 78.3408 144.506C78.3261 144.378 78.3547 144.249 78.422 144.139C78.5872 143.939 78.803 143.787 79.047 143.698C79.291 143.61 79.5543 143.588 79.8094 143.636C80.3401 143.649 80.8469 143.86 81.2292 144.229C81.3107 144.317 81.3646 144.428 81.3846 144.547C81.4045 144.666 81.3896 144.788 81.3415 144.899C81.2934 145.01 81.2143 145.104 81.1138 145.171C81.0132 145.238 80.8955 145.274 80.7748 145.275Z" fill="#263238"/>
<path d="M75.3632 153.931C75.633 154.231 75.9618 154.471 76.329 154.637C76.6963 154.803 77.0939 154.892 77.4969 154.897C77.8499 154.909 78.2027 154.868 78.5435 154.775L78.7382 154.718L78.9248 154.661C78.9667 154.642 79.0021 154.611 79.0266 154.573C79.0511 154.534 79.0637 154.488 79.0628 154.442V154.361V154.288C78.9735 153.631 78.7464 152.666 78.7464 152.666C79.006 152.747 80.3122 153.096 80.2392 152.755C79.6793 149.826 78.8258 146.961 77.6916 144.204C77.6839 144.185 77.6694 144.17 77.651 144.161C77.6326 144.152 77.6116 144.151 77.5922 144.157C77.5729 144.163 77.5565 144.176 77.5464 144.194C77.5363 144.212 77.5331 144.232 77.5375 144.252C78.0324 146.962 79.006 149.566 79.5496 152.284C79.0859 152.149 78.6046 152.083 78.1216 152.089C78.0324 152.13 78.5922 153.98 78.6084 154.28C78.0825 154.422 77.5334 154.456 76.994 154.38C76.4545 154.305 75.9358 154.122 75.4686 153.842C75.3632 153.801 75.2983 153.866 75.3632 153.931Z" fill="#263238"/>
<path d="M78.1057 154.507C77.8269 155.031 77.4157 155.473 76.913 155.789C76.6349 155.956 76.3117 156.032 75.9881 156.008C75.2823 155.935 75.1768 155.318 75.1768 154.767C75.2008 154.474 75.258 154.186 75.3472 153.907C76.1788 154.397 77.1456 154.607 78.1057 154.507Z" fill="#263238"/>
<path d="M76.913 155.773C76.6349 155.94 76.3117 156.016 75.9881 155.992C75.2823 155.919 75.1768 155.302 75.1768 154.751C75.5391 154.7 75.9077 154.774 76.2228 154.96C76.538 155.145 76.7812 155.432 76.913 155.773Z" fill="#FF9ABB"/>
<path d="M82.7869 152.39C82.7869 152.39 82.4623 158.604 79.3144 158.807C77.4322 158.929 76.1909 157.12 76.1909 157.12H75.1524C75.1524 157.12 73.5865 160.738 70.2845 159.253C66.6741 157.631 65.2056 147.936 65.2056 147.936C65.2056 147.936 64.3132 152.325 62.4228 152.487C62.6343 154.652 63.025 156.796 63.5911 158.897C64.3294 161.939 68.7673 166.766 75.7609 166.482C78.6816 166.361 82.584 162.142 82.8842 159.026C83.0731 156.816 83.0405 154.593 82.7869 152.39Z" fill="#263238"/>
<path d="M63.7696 150.646C65.7573 150.646 65.9521 146.062 65.9521 146.062C65.9521 146.062 70.9417 147.311 70.82 140.667C70.82 140.667 76.702 142.427 80.2475 140.366C83.2737 138.606 84.7584 133.324 82.4056 130.282C81.075 128.57 77.4565 127.036 72.2479 132.399C72.2479 132.399 65.1489 127.815 62.8041 136.285C62.8041 136.285 59.2181 136.829 58.8936 140.342C58.3906 145.883 62.0577 150.678 63.7696 150.646Z" fill="#263238"/>
<path d="M70.812 140.204C70.812 140.191 70.8068 140.179 70.7977 140.17C70.7886 140.16 70.7762 140.155 70.7633 140.155C70.7504 140.155 70.738 140.16 70.7289 140.17C70.7198 140.179 70.7146 140.191 70.7146 140.204C71.0716 141.827 71.4367 143.563 70.1954 144.91C69.6373 145.556 68.8811 145.999 68.0446 146.171C67.2082 146.343 66.3384 146.233 65.5709 145.859C65.4816 145.818 65.4005 145.956 65.4897 146.005C66.2433 146.369 67.0877 146.502 67.9166 146.386C68.7454 146.271 69.5214 145.912 70.1467 145.356C71.6801 144.017 71.5178 141.981 70.812 140.204Z" fill="#263238"/>
<path d="M63.8832 149.615C61.1085 148.292 58.9585 146.037 58.6259 142.848C58.4009 141.327 58.7509 139.777 59.6076 138.5C60.4189 137.364 61.7413 136.877 62.8528 136.204C62.8528 136.204 62.8528 136.131 62.8528 136.147C55.6483 138.2 57.4332 147.887 63.729 149.939C63.7691 149.946 63.8104 149.94 63.8465 149.921C63.8826 149.902 63.9116 149.872 63.9291 149.835C63.9465 149.799 63.9515 149.757 63.9432 149.717C63.9349 149.678 63.9138 149.642 63.8832 149.615Z" fill="#263238"/>
<path d="M83.3306 130.314C80.1665 126.103 74.2601 129.186 72.0614 132.748C74.0735 130.071 78.3492 127.377 81.6106 129.34C85.5536 131.717 84.1663 138.776 79.7284 139.587C79.5986 139.587 79.631 139.839 79.7284 139.823C83.8823 139.384 85.6834 133.437 83.3306 130.314Z" fill="#263238"/>
<path d="M64.9137 151.448C64.9137 151.448 62.0092 147.441 60.1919 148.487C58.3745 149.534 60.5975 155.359 62.7718 156.13C63.0437 156.248 63.3367 156.309 63.6331 156.311C63.9295 156.312 64.2232 156.254 64.4962 156.138C64.7693 156.023 65.0161 155.854 65.2217 155.64C65.4274 155.427 65.5876 155.174 65.6926 154.897L64.9137 151.448Z" fill="#F7A9A0"/>
<path d="M60.8652 150.143V150.2C62.3904 150.784 63.2099 152.18 63.794 153.624C63.7038 153.474 63.582 153.345 63.4371 153.246C63.2922 153.148 63.1276 153.082 62.9547 153.053C62.7819 153.025 62.6049 153.034 62.436 153.081C62.2671 153.128 62.1104 153.21 61.9767 153.324C61.9767 153.324 61.9767 153.413 61.9767 153.405C62.2408 153.313 62.5272 153.306 62.7952 153.386C63.0632 153.467 63.2991 153.629 63.4695 153.851C63.7597 154.216 64.0074 154.614 64.2078 155.035C64.2808 155.173 64.5242 155.1 64.4674 154.938C64.4917 152.975 62.9502 150.297 60.8652 150.143Z" fill="#263238"/>
<path d="M73.4165 166.368L70.1712 173.516L61.5713 163.926L58.8777 166.774C58.8777 166.774 67.1045 181.775 67.1856 181.118L70.4309 174.976L74.5767 179.519L74.6903 168.55L73.4165 166.368Z" fill="#EBEBEB"/>
<path d="M74.9579 174.101C74.9173 172.292 74.9579 170.467 74.7956 168.657C74.7956 168.592 74.6983 168.56 74.6739 168.657C74.2358 170.385 74.4386 177.314 74.3575 178.969C74.1871 178.774 70.5037 174.961 70.4632 175.018C69.7736 175.984 67.3802 180.454 67.2179 180.868C65.9198 178.482 60.9221 169.809 59.3563 167.546C59.347 167.534 59.334 167.526 59.3195 167.523C59.3049 167.52 59.2898 167.522 59.2765 167.528C59.2632 167.535 59.2525 167.546 59.2464 167.559C59.2402 167.573 59.2389 167.588 59.2427 167.603C60.3785 170.11 66.9907 181.784 67.0962 181.752C68.3513 179.652 69.4916 177.485 70.5119 175.261C71.1285 176.073 74.8199 180.373 74.8443 180.129C74.9902 178.123 75.0281 176.111 74.9579 174.101Z" fill="#263238"/>
<rect x="124.529" y="85.1883" width="127.377" height="15.415" rx="7.7075" fill="#0076F8"/>
</svg>
