<svg width="32" height="32" viewBox="0 0 32 32" fill="none" xmlns="http://www.w3.org/2000/svg">
<path d="M14 27.8667C8.33333 26.8667 4 21.9333 4 16C4 9.4 9.4 4 16 4C22.6 4 28 9.4 28 16C28 21.9333 23.6667 26.8667 18 27.8667L17.3333 27.3333H14.6667L14 27.8667Z" fill="#0D1634"/>
<path d="M20.6667 19.3334L21.2 16.0001H18V13.6667C18 12.7334 18.3333 12.0001 19.8 12.0001H21.3333V8.93341C20.4667 8.80008 19.5333 8.66675 18.6667 8.66675C15.9333 8.66675 14 10.3334 14 13.3334V16.0001H11V19.3334H14V27.8001C14.6667 27.9334 15.3333 28.0001 16 28.0001C16.6667 28.0001 17.3333 27.9334 18 27.8001V19.3334H20.6667Z" fill="white"/>
</svg>
