<svg width="20" height="20" viewBox="0 0 20 20" fill="none" xmlns="http://www.w3.org/2000/svg">
<path d="M18.3333 10.0001C18.3333 5.40008 14.6 1.66675 9.99999 1.66675C5.39999 1.66675 1.66666 5.40008 1.66666 10.0001C1.66666 14.6001 5.39999 18.3334 9.99999 18.3334C14.6 18.3334 18.3333 14.6001 18.3333 10.0001ZM9.99999 12.3251V10.8334H7.49999C7.04166 10.8334 6.66666 10.4584 6.66666 10.0001C6.66666 9.54175 7.04166 9.16675 7.49999 9.16675H9.99999V7.67508C9.99999 7.30008 10.45 7.11675 10.7083 7.38341L13.0333 9.70842C13.2 9.87508 13.2 10.1334 13.0333 10.3001L10.7083 12.6251C10.45 12.8834 9.99999 12.7001 9.99999 12.3251Z" fill="white"/>
</svg>
