<svg width="24" height="24" viewBox="0 0 24 24" fill="none" xmlns="http://www.w3.org/2000/svg">
<mask id="mask0_609_970" style="mask-type:alpha" maskUnits="userSpaceOnUse" x="0" y="0" width="24" height="24">
<rect width="24" height="24" fill="#040921"/>
</mask>
<g mask="url(#mask0_609_970)">
</g>
<g clip-path="url(#clip0_609_970)">
<path d="M17.545 14.8943C17.0077 14.8943 16.5735 15.3286 16.5735 15.8658V18.9175C16.5735 19.4538 16.1382 19.8891 15.6019 19.8891H4.91468C4.37836 19.8891 3.94313 19.4538 3.94313 18.9175V6.28719C3.94313 5.75088 4.3784 5.31565 4.91468 5.31565H10.5595C11.0967 5.31565 11.531 4.88136 11.531 4.3441C11.531 3.80685 11.0967 3.37256 10.5595 3.37256H4.91468C3.30771 3.37248 2 4.68023 2 6.28719V18.9175C2 20.5245 3.30771 21.8322 4.91468 21.8322H15.6019C17.2088 21.8322 18.5165 20.5255 18.5165 18.9175V15.8659C18.5166 15.3286 18.0823 14.8943 17.545 14.8943Z" fill="white"/>
<path d="M20.9135 3.24925C20.2081 2.54391 19.2871 2.1883 18.3592 2.16888C17.3828 2.14751 16.4005 2.50114 15.6622 3.2405L9.08464 9.81801C8.12474 10.7818 7.59619 12.0604 7.59619 13.4186V15.5949C7.59619 16.1322 8.03048 16.5664 8.56774 16.5664H10.744C12.1023 16.5664 13.3809 16.0379 14.3456 15.077L20.9144 8.50827C22.362 7.05974 22.362 4.69884 20.9135 3.24925ZM12.9729 13.7024C12.3773 14.296 11.5845 14.6234 10.7441 14.6234H9.53932V13.4187C9.53932 12.5782 9.86674 11.7854 10.4594 11.1908L14.7955 6.85474L17.3079 9.3672L12.9729 13.7024ZM19.5397 7.13552L18.6818 7.99343L16.1693 5.48097L17.0272 4.6231C17.7209 3.9294 18.8479 3.93135 19.5396 4.6231C20.2314 5.31578 20.2314 6.44279 19.5397 7.13552Z" fill="white"/>
</g>
<defs>
<clipPath id="clip0_609_970">
<rect width="20" height="20" fill="white" transform="translate(2 2)"/>
</clipPath>
</defs>
</svg>
