<svg width="24" height="24" viewBox="0 0 24 24" fill="none" xmlns="http://www.w3.org/2000/svg">
<g clip-path="url(#clip0_0_5)">
<path d="M17.272 10.4248C16.4138 10.4248 15.7156 11.123 15.7156 11.9812C15.7156 12.8392 16.4138 13.5374 17.272 13.5374C18.13 13.5374 18.8282 12.8392 18.8282 11.9812C18.8282 11.123 18.13 10.4248 17.272 10.4248Z" fill="#151513"/>
<path d="M6.72803 10.4248C5.87 10.4248 5.17181 11.123 5.17181 11.9812C5.17181 12.8392 5.87 13.5374 6.72803 13.5374C7.58624 13.5374 8.28442 12.8392 8.28442 11.9812C8.28442 11.123 7.58624 10.4248 6.72803 10.4248Z" fill="#151513"/>
<path d="M21.0375 4.5H2.96246C1.34619 4.5 0 5.80811 0 7.46246V16.5C0 18.1609 1.35223 19.4625 2.96246 19.4625H7.29675C8.0874 19.4625 8.83191 19.1548 9.39459 18.5947L10.9019 17.0874C11.1894 16.7983 11.5897 16.6326 12 16.6326C12.4103 16.6326 12.8106 16.7983 13.1005 17.0898L14.6069 18.596C15.1681 19.1548 15.9126 19.4625 16.7032 19.4625H21.0375C22.6538 19.4625 24 18.1544 24 16.5V7.46246C24 5.80151 22.6478 4.5 21.0375 4.5ZM6.72803 14.9438C5.09454 14.9438 3.76556 13.6148 3.76556 11.9813C3.76556 10.3478 5.09454 9.01868 6.72803 9.01868C8.36169 9.01868 9.69067 10.3478 9.69067 11.9813C9.69067 13.6148 8.36169 14.9438 6.72803 14.9438ZM17.272 14.9438C15.6383 14.9438 14.3093 13.6148 14.3093 11.9813C14.3093 10.3478 15.6383 9.01868 17.272 9.01868C18.9055 9.01868 20.2344 10.3478 20.2344 11.9813C20.2344 13.6148 18.9055 14.9438 17.272 14.9438Z" fill="#151513"/>
</g>
<defs>
<clipPath id="clip0_0_5">
<rect width="24" height="24" fill="white"/>
</clipPath>
</defs>
</svg>
