<svg width="32" height="32" viewBox="0 0 32 32" fill="none" xmlns="http://www.w3.org/2000/svg">
<path fill-rule="evenodd" clip-rule="evenodd" d="M26.88 16.2576C26.88 15.454 26.8079 14.6813 26.6739 13.9395H16V18.3234H22.0994C21.8367 19.7401 21.0382 20.9404 19.8379 21.744V24.5877H23.5006C25.6436 22.6146 26.88 19.7092 26.88 16.2576Z" fill="#0D1634"/>
<path fill-rule="evenodd" clip-rule="evenodd" d="M16 27.3333C19.06 27.3333 21.6255 26.3185 23.5006 24.5876L19.8379 21.7439C18.823 22.4239 17.5248 22.8258 16 22.8258C13.0482 22.8258 10.5497 20.8321 9.65847 18.1533H5.8721V21.0897C7.73695 24.7936 11.5697 27.3333 16 27.3333Z" fill="#0D1634"/>
<path fill-rule="evenodd" clip-rule="evenodd" d="M9.65847 18.1534C9.4318 17.4734 9.30301 16.7471 9.30301 16.0001C9.30301 15.2531 9.4318 14.5268 9.65847 13.8468V10.9104H5.8721C5.10452 12.4404 4.66664 14.1713 4.66664 16.0001C4.66664 17.8289 5.10452 19.5598 5.8721 21.0898L9.65847 18.1534Z" fill="#0D1634"/>
<path fill-rule="evenodd" clip-rule="evenodd" d="M16 9.17433C17.6639 9.17433 19.1579 9.74615 20.3324 10.8692L23.583 7.61857C21.6203 5.78978 19.0548 4.66675 16 4.66675C11.5697 4.66675 7.73695 7.20645 5.8721 10.9104L9.65847 13.8468C10.5497 11.168 13.0482 9.17433 16 9.17433Z" fill="#0D1634"/>
</svg>
