<svg width="24" height="24" viewBox="0 0 24 24" fill="none" xmlns="http://www.w3.org/2000/svg">
<path d="M17 16C17.5523 16 18 15.5523 18 15C18 14.4477 17.5523 14 17 14C16.4477 14 16 14.4477 16 15C16 15.5523 16.4477 16 17 16Z" fill="#0064D2"/>
<path fill-rule="evenodd" clip-rule="evenodd" d="M2 7C2 5.34315 3.34315 4 5 4H19C20.6569 4 22 5.34315 22 7V17C22 18.6569 20.6569 20 19 20H5C3.34315 20 2 18.6569 2 17V7ZM5 6C4.44772 6 4 6.44772 4 7V8H20V7C20 6.44772 19.5523 6 19 6H5ZM4 17V10H20V17C20 17.5523 19.5523 18 19 18H5C4.44772 18 4 17.5523 4 17Z" fill="#0064D2"/>
</svg>
