<svg width="20" height="20" viewBox="0 0 20 20" fill="none" xmlns="http://www.w3.org/2000/svg">
<path d="M10 1.66675C5.40001 1.66675 1.66667 5.40008 1.66667 10.0001C1.66667 14.6001 5.40001 18.3334 10 18.3334C14.6 18.3334 18.3333 14.6001 18.3333 10.0001C18.3333 5.40008 14.6 1.66675 10 1.66675ZM7.74167 13.5751L4.75001 10.5834C4.425 10.2584 4.425 9.73341 4.75001 9.40841C5.07501 9.08342 5.60001 9.08342 5.92501 9.40841L8.33334 11.8084L14.0667 6.07508C14.3917 5.75008 14.9167 5.75008 15.2417 6.07508C15.5667 6.40008 15.5667 6.92508 15.2417 7.25008L8.91667 13.5751C8.60001 13.9001 8.06667 13.9001 7.74167 13.5751Z" fill="white"/>
</svg>
