<svg width="24" height="24" viewBox="0 0 24 24" fill="none" xmlns="http://www.w3.org/2000/svg">
<mask id="mask0_609_1023" style="mask-type:alpha" maskUnits="userSpaceOnUse" x="0" y="0" width="24" height="24">
<rect width="24" height="24" fill="black"/>
</mask>
<g mask="url(#mask0_609_1023)">
<path fill-rule="evenodd" clip-rule="evenodd" d="M4 16V18C4 20.21 5.791 22 8 22H18C20.21 22 22 20.21 22 18C22 14.671 22 9.33 22 6C22 3.791 20.21 2 18 2C15.141 2 10.86 2 8 2C5.791 2 4 3.791 4 6V8C4 8.552 4.448 9 5 9C5.552 9 6 8.552 6 8C6 8 6 7.063 6 6C6 4.896 6.896 4 8 4H18C19.105 4 20 4.896 20 6V18C20 19.105 19.105 20 18 20C15.141 20 10.86 20 8 20C6.896 20 6 19.105 6 18C6 16.938 6 16 6 16C6 15.449 5.552 15 5 15C4.448 15 4 15.449 4 16ZM11.586 11L10.293 9.70799C9.903 9.31699 9.903 8.684 10.293 8.293C10.684 7.903 11.317 7.903 11.707 8.293L14.707 11.293C15.098 11.684 15.098 12.317 14.707 12.708L11.707 15.708C11.317 16.098 10.684 16.098 10.293 15.708C9.903 15.317 9.903 14.684 10.293 14.293L11.586 13H3C2.448 13 2 12.552 2 12C2 11.449 2.448 11 3 11H11.586Z" fill="#0064D2"/>
</g>
</svg>
