<svg width="24" height="24" viewBox="0 0 24 24" fill="none" xmlns="http://www.w3.org/2000/svg">
<mask id="mask0_609_981" style="mask-type:alpha" maskUnits="userSpaceOnUse" x="0" y="0" width="24" height="24">
<rect width="24" height="24" fill="#C4C4C4"/>
</mask>
<g mask="url(#mask0_609_981)">
<path d="M8.93404 22C8.59566 22 8.25728 21.9342 7.93974 21.8025C7.27715 21.5283 6.75208 20.9857 6.50038 20.3139L5.88112 18.6637C5.78611 18.412 5.58692 18.2128 5.33522 18.1186L3.68582 17.4994C3.01406 17.2477 2.47149 16.7226 2.19729 16.06C1.92225 15.3974 1.93558 14.6432 2.23229 13.9906L2.96156 12.3862C3.07324 12.1411 3.07324 11.8603 2.96156 11.6152L2.23229 10.0092C1.93642 9.3566 1.92308 8.60233 2.19729 7.93974C2.47149 7.27715 3.01406 6.75208 3.68582 6.50037L5.33605 5.88112C5.58775 5.78611 5.78694 5.58692 5.88112 5.33522L6.50038 3.68582C6.75208 3.01406 7.27715 2.47149 7.93974 2.19729C8.60233 1.92225 9.3566 1.93558 10.0092 2.23229L11.6136 2.96156C11.8594 3.07407 12.1403 3.07324 12.3845 2.96156H12.3853L13.9897 2.23229C14.6423 1.93725 15.3966 1.92225 16.0592 2.19729C16.7218 2.47149 17.2468 3.01406 17.4986 3.68582L18.1178 5.33605C18.2128 5.58775 18.412 5.78694 18.6637 5.88112L20.3131 6.50037C20.9849 6.75208 21.5274 7.27715 21.8016 7.93974C22.0767 8.60233 22.0633 9.3566 21.7666 10.0092L21.0374 11.6136C20.9257 11.8586 20.9257 12.1395 21.0374 12.3845L21.7666 13.9897C22.0625 14.6423 22.0758 15.3966 21.8016 16.0592C21.5274 16.7218 20.9849 17.2468 20.3131 17.4985L18.6629 18.1178C18.4112 18.2128 18.212 18.412 18.1178 18.6637L17.4986 20.3131C17.2468 20.9849 16.7218 21.5274 16.0592 21.8016C15.3966 22.0767 14.6415 22.0625 13.9897 21.7666L12.3853 21.0374C12.1395 20.9249 11.8586 20.9257 11.6144 21.0374L10.01 21.7675C9.66998 21.9217 9.30243 22 8.93404 22ZM8.93488 3.66499C8.81403 3.66499 8.69318 3.68916 8.57733 3.73666C8.33563 3.83668 8.15227 4.0267 8.06059 4.2709L7.44217 5.9203C7.1788 6.62289 6.62373 7.17797 5.92113 7.44134L4.27174 8.05976C4.02754 8.15143 3.83751 8.33563 3.7375 8.57649C3.63748 8.81819 3.64165 9.0824 3.75 9.31993L4.47926 10.9243C4.79014 11.6069 4.79014 12.392 4.47926 13.0754L3.75083 14.679C3.64248 14.9165 3.63832 15.1807 3.73833 15.4216C3.83834 15.6633 4.02837 15.8467 4.27257 15.9383L5.92196 16.5576C6.62456 16.821 7.17964 17.3752 7.44301 18.0786L8.06142 19.728C8.1531 19.9722 8.33729 20.1622 8.57816 20.2623C8.81986 20.3631 9.08323 20.3573 9.32076 20.2498L10.9251 19.5205C11.6077 19.2096 12.3912 19.2088 13.0763 19.5205L14.6798 20.2489C14.9182 20.3564 15.1816 20.3623 15.4224 20.2614C15.6641 20.1614 15.8475 19.9714 15.9392 19.7272L16.5584 18.0778C16.8218 17.3752 17.376 16.8201 18.0795 16.5568L19.7289 15.9383C19.9731 15.8467 20.1631 15.6625 20.2631 15.4216C20.3631 15.1799 20.3589 14.9165 20.2506 14.679L19.5213 13.0746C19.2105 12.392 19.2105 11.6069 19.5213 10.9235L20.2498 9.31993C20.3581 9.0824 20.3623 8.81819 20.2623 8.57733C20.1622 8.33563 19.9722 8.15227 19.728 8.06059L18.0786 7.44134C17.376 7.17797 16.821 6.62372 16.5576 5.9203L15.9392 4.2709C15.8475 4.0267 15.6633 3.83668 15.4224 3.73666C15.1816 3.63665 14.9182 3.64082 14.6798 3.74916L13.0754 4.47843C12.3912 4.78931 11.6077 4.78847 10.9243 4.47843L9.32076 3.74916C9.19658 3.69332 9.06573 3.66499 8.93488 3.66499Z" fill="#0064D2" stroke="#0064D2" stroke-width="0.3"/>
<path d="M9.1875 11.0625C8.15344 11.0625 7.3125 10.2216 7.3125 9.1875C7.3125 8.15344 8.15344 7.3125 9.1875 7.3125C10.2216 7.3125 11.0625 8.15344 11.0625 9.1875C11.0625 10.2216 10.2216 11.0625 9.1875 11.0625Z" fill="#0064D2"/>
<path d="M14.8125 16.6875C13.7784 16.6875 12.9375 15.8466 12.9375 14.8125C12.9375 13.7784 13.7784 12.9375 14.8125 12.9375C15.8466 12.9375 16.6875 13.7784 16.6875 14.8125C16.6875 15.8466 15.8466 16.6875 14.8125 16.6875Z" fill="#0064D2"/>
<path d="M9.18658 16.6876C8.99158 16.6876 8.79377 16.6266 8.62502 16.5001C8.21064 16.1898 8.1272 15.602 8.43751 15.1876L14.0625 7.68758C14.3738 7.27414 14.9607 7.18883 15.375 7.50008C15.7894 7.81039 15.8728 8.39821 15.5625 8.81258L9.93752 16.3126C9.75377 16.5582 9.47158 16.6876 9.18658 16.6876Z" fill="#0064D2"/>
</g>
</svg>
